<svg width="30" height="17" viewBox="0 0 30 17" fill="none" xmlns="http://www.w3.org/2000/svg">
<g clip-path="url(#clip0_353_4415)">
<path d="M0.801147 15.5326C0.801147 10.8484 0.801147 6.16417 0.801147 1.47994C0.805055 1.46029 0.810475 1.44089 0.812743 1.42111C0.888368 0.787918 1.35611 0.244646 1.98468 0.0641777C2.07996 0.0368151 2.17865 0.0211438 2.27571 0C10.9593 0 19.643 0 28.3266 0C28.3331 0.0101988 28.3441 0.0095769 28.3542 0.0110694C29.0044 0.106092 29.4504 0.458075 29.7003 1.0552C29.7539 1.18331 29.7756 1.31975 29.8011 1.45494V15.5575C29.7907 15.5638 29.7913 15.5748 29.7897 15.5847C29.6762 16.2585 29.2903 16.7042 28.637 16.9266C28.5198 16.9665 28.3965 16.9761 28.2763 17.0001H2.28831C2.26109 16.9769 2.22592 16.9841 2.19466 16.9782C1.51694 16.8507 1.07415 16.4625 0.86253 15.8153C0.83228 15.7229 0.825095 15.626 0.801147 15.5326ZM20.7085 4.05974C20.6841 4.08125 20.6639 4.09879 20.644 4.1167C19.8344 4.84504 19.0249 5.57326 18.2153 6.3016C17.4229 7.01452 16.6304 7.72757 15.838 8.44061C15.5915 8.6625 15.3452 8.88476 15.0983 9.10614C14.9754 9.21622 14.7936 9.17928 14.7329 9.03276C14.715 8.9896 14.715 8.94396 14.715 8.89819C14.7151 7.21116 14.7149 5.52401 14.7165 3.83698C14.7165 3.77915 14.7005 3.76683 14.6442 3.76683C13.4994 3.76845 12.3546 3.76857 11.2099 3.76683C11.151 3.76683 11.1406 3.77828 11.1562 3.83437C11.2959 4.3351 11.7605 4.68597 12.2878 4.68597C12.7605 4.68597 13.233 4.68572 13.7057 4.68622C13.8088 4.68622 13.7929 4.67502 13.7929 4.77079C13.7933 6.16566 13.7924 7.56053 13.7935 8.95528C13.7941 9.76471 14.5925 10.3265 15.3644 10.0577C15.6965 9.94207 15.9695 9.73722 16.2202 9.49407C16.699 9.02928 17.1882 8.57481 17.6732 8.11624C18.2506 7.57023 18.8282 7.02435 19.4058 6.47847C19.5111 6.37896 19.6165 6.27946 19.7248 6.17735C19.7395 6.20733 19.7333 6.2322 19.7335 6.25583C19.7338 7.10146 19.7335 7.94709 19.734 8.79272C19.7343 9.2748 20.0411 9.71546 20.4971 9.87416C20.9684 10.0382 21.392 9.94543 21.7533 9.60738C22.3686 9.03152 22.9785 8.45006 23.5906 7.87085C24.1329 7.35755 24.675 6.84388 25.2175 6.33071C25.2286 6.32026 25.2378 6.30359 25.2624 6.3072V6.37411C25.2624 7.17833 25.2618 7.98241 25.2626 8.78662C25.2632 9.32517 25.6262 9.78399 26.1497 9.91583C26.2035 9.92938 26.2124 9.91757 26.2124 9.86695C26.2112 7.9747 26.2115 6.08245 26.211 4.19021C26.211 4.17528 26.2188 4.15762 26.1996 4.14207C26.0359 4.29356 25.8724 4.44468 25.7092 4.59604C24.9845 5.26842 24.2599 5.94116 23.535 6.61341C22.9339 7.17074 22.3324 7.72769 21.7312 8.28489C21.5201 8.48054 21.3095 8.67668 21.0979 8.87182C21.0303 8.93401 20.9498 8.94856 20.8641 8.91722C20.7771 8.88538 20.7322 8.81846 20.7225 8.72866C20.7199 8.70404 20.7205 8.67904 20.7205 8.65416C20.7205 7.14947 20.7205 5.64478 20.7201 4.14008C20.7201 4.11608 20.7263 4.09096 20.7089 4.05949L20.7085 4.05974ZM15.1729 8.42879C15.1941 8.42991 15.2025 8.41288 15.2139 8.40268C15.5414 8.10865 15.8684 7.81401 16.1956 7.51961C17.7199 6.148 19.2445 4.77676 20.7684 3.40453C20.8462 3.3345 20.9285 3.29694 21.0307 3.34122C21.1335 3.38575 21.1688 3.46833 21.1688 3.57654C21.1676 5.08745 21.1679 6.59836 21.1679 8.10927V8.19161C21.1906 8.17445 21.2041 8.16574 21.2156 8.15504C21.3244 8.05467 21.4329 7.95381 21.5414 7.85319C22.387 7.06887 23.2329 6.28469 24.0781 5.5C24.8118 4.8188 25.5449 4.13697 26.2782 3.45527C26.3094 3.42617 26.3447 3.40502 26.3866 3.39545C26.5357 3.36162 26.6608 3.47144 26.6608 3.63624C26.6608 5.49528 26.6608 7.35432 26.6608 9.21336C26.6608 9.43512 26.6621 9.65688 26.6598 9.87864C26.6593 9.92354 26.6741 9.92951 26.714 9.9213C27.2196 9.81658 27.62 9.33238 27.6203 8.81909C27.6211 7.06577 27.6206 5.31245 27.6205 3.55913C27.6205 3.46759 27.6094 3.37729 27.5871 3.28861C27.3678 2.41525 26.2795 2.10319 25.6211 2.72482C25.336 2.99396 25.0517 3.26386 24.7668 3.53326C23.9591 4.29717 23.1513 5.06108 22.3435 5.82487C22.2642 5.89987 22.1843 5.97425 22.0936 6.05907V5.97698C22.0936 5.17489 22.0943 4.37291 22.0932 3.57082C22.0925 3.07866 21.798 2.65566 21.3372 2.47569C21.1512 2.40306 20.958 2.39522 20.7615 2.3997C20.4705 2.40641 20.2142 2.50156 19.9992 2.69322C19.817 2.85566 19.6432 3.02717 19.466 3.19495C18.9995 3.63661 18.5333 4.07864 18.0667 4.52017C17.4909 5.06481 16.9148 5.60921 16.3388 6.1536C16.2794 6.20981 16.2194 6.26541 16.1515 6.32909C16.1515 5.78445 16.1517 5.25399 16.1509 4.72353C16.1509 4.69243 16.1623 4.68522 16.1912 4.68572C16.2751 4.68721 16.3592 4.68447 16.4433 4.68659C16.7828 4.69505 17.0697 4.57092 17.3162 4.34816C17.5097 4.17329 17.7003 3.99543 17.8914 3.81808C17.9051 3.80526 17.9283 3.79743 17.9285 3.77019C17.9172 3.76957 17.9071 3.76857 17.8969 3.76857C17.0043 3.76857 16.1115 3.7692 15.2189 3.76696C15.1545 3.76683 15.1666 3.80153 15.1666 3.83686C15.1666 5.34565 15.1666 6.85445 15.1669 8.36325C15.1669 8.38489 15.1608 8.40778 15.1726 8.42917L15.1729 8.42879ZM3.17463 9.41472C3.18459 9.40726 3.19178 9.4029 3.1977 9.39743C3.64414 8.98314 4.09045 8.56884 4.53689 8.15455C5.20189 7.53727 5.86675 6.92 6.53162 6.30272C7.24703 5.63868 7.96232 4.97452 8.67773 4.31048C8.96057 4.04792 9.24315 3.78524 9.52637 3.52318C9.6364 3.42144 9.7932 3.43475 9.87777 3.5503C9.91584 3.60228 9.92037 3.66062 9.92037 3.72156C9.92012 5.76293 9.92012 7.80431 9.92025 9.8458C9.92025 9.91993 9.9205 9.91993 9.99159 9.90165C10.5053 9.76906 10.8687 9.30639 10.8688 8.78289C10.8691 7.04823 10.8691 5.31357 10.8683 3.5789C10.8683 3.51074 10.8657 3.44147 10.8535 3.37468C10.7698 2.91611 10.509 2.59534 10.0605 2.44808C9.62229 2.30418 9.22009 2.39684 8.88116 2.70591C8.52056 3.03476 8.17041 3.37468 7.81586 3.71012C7.35215 4.14879 6.88895 4.58783 6.42524 5.02638C5.8781 5.54378 5.3307 6.06069 4.78343 6.57797C4.3409 6.99624 3.90265 7.41924 3.45432 7.83142C3.2011 8.06425 3.01696 8.32594 2.98696 8.67531C2.96402 8.94247 3.02893 9.18724 3.17489 9.41497L3.17463 9.41472ZM8.51426 6.26989V6.35596C8.51426 7.16626 8.51426 7.97657 8.51426 8.78675C8.51426 9.31298 8.88809 9.78113 9.40613 9.90687C9.45402 9.91844 9.46221 9.906 9.46221 9.8616C9.46133 7.99448 9.46146 6.12723 9.46095 4.26011C9.46095 4.24568 9.47041 4.22665 9.44709 4.21558C9.34537 4.31048 9.24341 4.40587 9.14106 4.5009C8.17331 5.39876 7.20531 6.29638 6.23769 7.19437C5.33877 8.02855 4.44047 8.86336 3.54104 9.69705C3.50663 9.72889 3.50045 9.74344 3.54646 9.77118C4.00033 10.0442 4.59437 9.97814 4.9769 9.61372C5.40733 9.20378 5.84003 8.79632 6.27198 8.38788C6.92512 7.77035 7.5784 7.15308 8.23154 6.5358C8.32179 6.45048 8.41241 6.36553 8.51426 6.26976V6.26989ZM6.18967 12.4175C6.26542 12.4006 6.3263 12.3873 6.38705 12.3734C6.89815 12.2568 7.2556 11.9244 7.27073 11.3894C7.27892 11.1027 7.18893 10.8551 6.96521 10.6649C6.71577 10.453 6.41302 10.3739 6.09502 10.3482C5.71588 10.3176 5.33511 10.3274 4.9556 10.3388C4.47047 10.3534 4.09776 10.6297 3.9455 11.0741C3.89458 11.2226 3.86017 11.3767 3.81883 11.5285C3.54494 12.5347 3.27156 13.541 2.99666 14.5471C2.98356 14.5952 2.9944 14.6065 3.04406 14.6064C3.78115 14.6038 4.51824 14.6068 5.2552 14.6001C5.59362 14.5969 5.92259 14.5315 6.22988 14.3856C6.55129 14.233 6.79744 14.0064 6.89424 13.6569C7.01562 13.2182 6.91466 12.8245 6.51221 12.5791C6.41415 12.5193 6.30689 12.4775 6.1898 12.4174L6.18967 12.4175ZM20.2314 11.7035C20.2269 11.7014 20.2225 11.6992 20.218 11.697C20.2435 11.6015 20.269 11.5058 20.2948 11.4103C20.302 11.3838 20.3078 11.3649 20.265 11.3654C20.0823 11.3678 19.8995 11.3634 19.7169 11.3674C19.5609 11.3709 19.4422 11.4603 19.406 11.5943C19.1399 12.5783 18.8747 13.5626 18.6077 14.5464C18.5952 14.5925 18.5972 14.6071 18.651 14.6066C18.8925 14.604 19.134 14.6043 19.3755 14.6066C19.4206 14.607 19.4346 14.5917 19.4458 14.5501C19.5644 14.1084 19.6842 13.667 19.8071 13.2265C19.871 12.9975 19.9155 12.7625 20.0104 12.5428C20.1533 12.2115 20.4166 12.0352 20.749 12.0438C21.0724 12.0522 21.2482 12.2387 21.2325 12.5564C21.2277 12.652 21.2112 12.7455 21.1861 12.8378C21.0323 13.4049 20.8793 13.9723 20.7234 14.539C20.7074 14.5971 20.7201 14.6075 20.7777 14.6068C21.0149 14.6038 21.2523 14.6045 21.4896 14.6065C21.5302 14.6069 21.5478 14.5953 21.5584 14.5561C21.6837 14.0906 21.809 13.6251 21.9378 13.1604C21.9953 12.9533 22.0342 12.7403 22.1238 12.543C22.2653 12.2319 22.4921 12.0394 22.8555 12.0439C23.174 12.0479 23.3502 12.2246 23.3462 12.5379C23.3448 12.6481 23.323 12.7559 23.294 12.8622C23.1414 13.4231 22.9885 13.9841 22.8342 14.5446C22.8212 14.5918 22.8259 14.6074 22.8811 14.6068C23.1163 14.6039 23.3515 14.6037 23.5867 14.607C23.6414 14.6078 23.6615 14.5901 23.675 14.5395C23.8321 13.9518 23.9929 13.3651 24.1497 12.7773C24.215 12.5327 24.2668 12.2868 24.232 12.0296C24.1799 11.6451 23.902 11.3653 23.5138 11.3158C23.0922 11.2621 22.7225 11.3785 22.396 11.6417C22.2784 11.7364 22.1802 11.8494 22.084 11.9645C22.0613 11.9463 22.0596 11.922 22.0522 11.9014C21.9142 11.5132 21.6366 11.3144 21.2204 11.302C20.8685 11.2914 20.5573 11.384 20.3059 11.6381C20.2829 11.6614 20.2567 11.6817 20.2318 11.7034L20.2314 11.7035ZM14.7837 3.30988C15.9683 3.30988 17.153 3.30988 18.3377 3.30988C18.3524 3.30988 18.3672 3.30888 18.3818 3.31013C18.4069 3.31224 18.4243 3.30428 18.4399 3.28289C18.5005 3.20005 18.5509 3.112 18.5807 3.01399C18.6552 2.7676 18.5693 2.53987 18.3606 2.43191C18.2642 2.38204 18.1595 2.36139 18.0508 2.36102C17.8996 2.36052 17.7483 2.36102 17.5971 2.36102C15.8369 2.36102 14.0767 2.36077 12.3165 2.36114C11.7511 2.36127 11.28 2.71723 11.1498 3.2406C11.1383 3.2867 11.1565 3.30979 11.2046 3.30988C12.3977 3.30988 13.5907 3.30988 14.7838 3.30988H14.7837ZM9.24971 13.2089C9.53948 13.2089 9.82925 13.2095 10.119 13.2087C10.2821 13.2082 10.3615 13.1473 10.4066 12.9942C10.4742 12.765 10.5027 12.5324 10.4679 12.2946C10.4132 11.9203 10.2348 11.6229 9.89605 11.4353C9.53393 11.2348 9.14308 11.2147 8.74768 11.301C7.73053 11.5229 7.05734 12.5003 7.21868 13.5195C7.28573 13.9434 7.50391 14.2703 7.90005 14.4678C8.13298 14.584 8.38342 14.629 8.64156 14.6356C9.08069 14.6469 9.48982 14.5493 9.85496 14.2991C9.92642 14.2501 9.92894 14.2404 9.87853 14.1722C9.79685 14.0619 9.71442 13.9521 9.63124 13.8429C9.56431 13.755 9.55359 13.7532 9.4573 13.8113C9.19236 13.9712 8.90662 14.0254 8.60022 13.9781C8.28146 13.9288 8.06555 13.739 7.99433 13.4276C7.91216 13.0686 7.98614 12.7309 8.1781 12.4217C8.39527 12.0721 8.71214 11.888 9.13602 11.9009C9.41306 11.9092 9.62077 12.0588 9.68039 12.2969C9.70547 12.3969 9.70283 12.4975 9.68657 12.599C9.67964 12.6424 9.66237 12.6554 9.6175 12.6552C9.28361 12.6532 8.94973 12.6557 8.61584 12.653C8.53896 12.6523 8.48779 12.6823 8.45111 12.7447C8.42779 12.7843 8.40964 12.8258 8.39805 12.8702C8.37334 12.9643 8.35141 13.0592 8.32217 13.1518C8.30654 13.2015 8.31839 13.2103 8.36767 13.2099C8.6616 13.2079 8.95565 13.2089 9.24958 13.2089H9.24971ZM26.2151 14.256C26.1854 14.3652 26.1623 14.4617 26.132 14.5559C26.117 14.6023 26.132 14.6065 26.1725 14.6063C26.4036 14.6049 26.6345 14.6042 26.8655 14.6068C26.9125 14.6073 26.9292 14.5915 26.9406 14.5486C27.0645 14.0848 27.193 13.6222 27.3151 13.1579C27.3834 12.8983 27.4745 12.6433 27.4865 12.3715C27.4989 12.0917 27.4415 11.8349 27.2255 11.6349C27.0742 11.495 26.8879 11.4221 26.6886 11.3786C26.3983 11.3153 26.105 11.3177 25.8116 11.3455C25.6341 11.3624 25.4569 11.3869 25.2872 11.4439C25.091 11.5097 25.0027 11.6587 25.039 11.854C25.0557 11.9435 25.0779 12.0321 25.0929 12.1219C25.1001 12.1648 25.1137 12.169 25.1536 12.155C25.37 12.079 25.5935 12.0328 25.8228 12.0178C26.0121 12.0053 26.2008 12.0082 26.3823 12.0729C26.5481 12.1319 26.6528 12.2421 26.6717 12.4207C26.6792 12.4916 26.6715 12.562 26.6545 12.6303C26.5916 12.8833 26.5266 13.1357 26.4616 13.3881C26.4171 13.5611 26.3301 13.7108 26.1938 13.8284C25.9479 14.0407 25.6631 14.1312 25.3423 14.0492C25.0351 13.9707 24.912 13.6242 25.1517 13.3885C25.198 13.343 25.2469 13.301 25.3015 13.2658C25.5392 13.1126 25.7998 13.0226 26.0819 12.9939C26.12 12.99 26.1422 12.9771 26.1577 12.9424C26.2035 12.8404 26.254 12.7404 26.2996 12.6383C26.3395 12.549 26.3348 12.5403 26.2373 12.5328C25.7697 12.4967 25.3279 12.587 24.9133 12.8033C24.6936 12.9179 24.4993 13.0633 24.355 13.2665C24.1468 13.5597 24.1333 13.9174 24.3297 14.1769C24.5369 14.4508 24.8206 14.6007 25.1655 14.6018C25.5441 14.603 25.9002 14.5109 26.2151 14.2557V14.256ZM17.5822 14.2565C17.5523 14.3651 17.5289 14.4593 17.5 14.5518C17.4864 14.5953 17.4928 14.6073 17.5415 14.6068C17.7704 14.6043 17.9993 14.6043 18.2281 14.6068C18.2762 14.6073 18.2956 14.5951 18.3083 14.5469C18.4351 14.0692 18.5672 13.5929 18.6936 13.1151C18.7575 12.8736 18.8402 12.6357 18.8529 12.3829C18.866 12.1245 18.8227 11.8821 18.6404 11.6831C18.4836 11.5119 18.2781 11.4267 18.0545 11.3789C17.7261 11.3085 17.3955 11.3178 17.065 11.3592C16.9258 11.3766 16.7864 11.3981 16.6533 11.4442C16.4612 11.5106 16.3732 11.6519 16.4047 11.8429C16.4205 11.9388 16.446 12.0331 16.4626 12.129C16.4692 12.168 16.4832 12.1688 16.5156 12.1573C16.734 12.0803 16.9593 12.0338 17.1907 12.018C17.3738 12.0056 17.5562 12.0087 17.7324 12.0669C17.9059 12.1241 18.0185 12.2348 18.0382 12.4224C18.0455 12.4913 18.0383 12.5597 18.0221 12.6258C17.9594 12.8811 17.8975 13.1365 17.8276 13.3899C17.7315 13.7374 17.498 13.9545 17.1487 14.0468C16.9582 14.0972 16.7659 14.1026 16.5876 13.9972C16.3762 13.8725 16.3313 13.6133 16.4865 13.4253C16.5387 13.362 16.6007 13.3098 16.6695 13.2654C16.9053 13.1133 17.1645 13.0251 17.4438 12.9939C17.4757 12.9903 17.5034 12.9888 17.5197 12.9526C17.5689 12.8431 17.6239 12.736 17.6729 12.6263C17.7056 12.5535 17.6974 12.5411 17.6156 12.5342C17.2039 12.4991 16.8092 12.5655 16.4316 12.7307C16.1691 12.8455 15.9332 12.9962 15.7547 13.2226C15.5041 13.5405 15.4891 13.9287 15.7241 14.2131C15.9315 14.4642 16.2061 14.6027 16.534 14.6023C16.9127 14.6019 17.2683 14.5103 17.5822 14.2562V14.2565ZM13.9555 14.6351C13.9775 14.6339 14.0068 14.6318 14.0361 14.6306C14.2825 14.6202 14.5191 14.57 14.7339 14.4468C15.1206 14.2251 15.2996 13.8873 15.2799 13.45C15.2689 13.2046 15.1242 13.0327 14.9298 12.8962C14.7665 12.7818 14.5854 12.7 14.4038 12.6194C14.2738 12.5618 14.1419 12.5076 14.0273 12.4217C13.8352 12.2777 13.8579 12.0249 14.0721 11.9138C14.1056 11.8964 14.1407 11.8839 14.1777 11.8751C14.2858 11.8491 14.3945 11.8543 14.5029 11.8698C14.7542 11.9056 14.972 12.0176 15.1747 12.1625C15.1996 12.1805 15.2166 12.1965 15.2452 12.1619C15.3451 12.0419 15.4493 11.9255 15.5506 11.8067C15.5985 11.7505 15.5992 11.6963 15.5554 11.6369C15.5189 11.5874 15.4697 11.5514 15.4162 11.5225C14.9593 11.2764 14.4765 11.181 13.9657 11.3083C13.5636 11.4086 13.2631 11.6392 13.1475 12.046C13.0113 12.5256 13.1469 12.8173 13.5386 13.0515C13.6912 13.1427 13.8536 13.2146 14.0168 13.2847C14.1397 13.3374 14.2648 13.3868 14.3709 13.4702C14.5094 13.5792 14.5258 13.7524 14.4116 13.8865C14.3612 13.9457 14.2954 13.9814 14.2214 14.0017C14.0509 14.0483 13.8801 14.0312 13.7106 13.9957C13.4436 13.94 13.2138 13.8126 13.0109 13.6353C12.9901 13.6171 12.9756 13.5976 12.946 13.6289C12.8357 13.7455 12.7219 13.8588 12.611 13.9747C12.5753 14.0119 12.5661 14.0574 12.5845 14.1073C12.6077 14.1702 12.6511 14.2166 12.7058 14.2538C13.0797 14.5084 13.4973 14.6243 13.9553 14.6353L13.9555 14.6351ZM11.7836 11.6387C11.8112 11.5297 11.8318 11.4358 11.8596 11.3442C11.8743 11.2959 11.8596 11.2887 11.8152 11.2892C11.6493 11.291 11.4834 11.2897 11.3175 11.2901C11.2045 11.2903 11.1405 11.3417 11.1105 11.4507C10.9883 11.8933 10.8765 12.3384 10.7499 12.7798C10.5815 13.3662 10.4296 13.9572 10.2695 14.5459C10.2578 14.5892 10.2593 14.6074 10.3137 14.6068C10.5405 14.6039 10.7672 14.6042 10.994 14.6068C11.0384 14.6073 11.0498 14.589 11.0587 14.5522C11.1002 14.377 11.1423 14.2021 11.1877 14.0278C11.3034 13.5835 11.4198 13.1396 11.5758 12.7066C11.6548 12.4872 11.8077 12.3484 12.0182 12.2607C12.247 12.1653 12.4871 12.1221 12.7337 12.1074C12.843 12.1009 12.8846 12.0642 12.9111 11.9594C12.9518 11.7991 12.9923 11.6388 13.033 11.4785C13.0602 11.3711 13.0175 11.3107 12.9054 11.3119C12.507 11.3162 12.1156 11.348 11.7838 11.6387H11.7836Z" fill="#0073C0"/>
<path d="M20.7085 4.05975C20.7259 4.09121 20.7197 4.11634 20.7197 4.14034C20.7201 5.64503 20.72 7.14973 20.7201 8.65442C20.7201 8.6793 20.7195 8.7043 20.7221 8.72892C20.732 8.81885 20.7767 8.88563 20.8637 8.91747C20.9493 8.94882 21.0299 8.93427 21.0975 8.87208C21.3091 8.67693 21.5197 8.48079 21.7309 8.28515C22.3321 7.72795 22.9335 7.171 23.5346 6.61367C24.2595 5.94142 24.9841 5.2688 25.7088 4.5963C25.8721 4.44494 26.0357 4.29382 26.1993 4.14233C26.2184 4.15788 26.2106 4.17554 26.2106 4.19046C26.211 6.08271 26.2109 7.97496 26.212 9.86721C26.212 9.91783 26.2032 9.92964 26.1494 9.91609C25.6258 9.78425 25.2628 9.32543 25.2623 8.78688C25.2614 7.98267 25.262 7.17858 25.262 6.37437V6.30746C25.2373 6.30385 25.2283 6.32052 25.2172 6.33096C24.6747 6.84414 24.1326 7.35768 23.5902 7.8711C22.9782 8.45032 22.3682 9.03178 21.7529 9.60763C21.3918 9.94556 20.9682 10.0383 20.4968 9.87442C20.0408 9.71572 19.734 9.27505 19.7336 8.79297C19.733 7.94735 19.7336 7.10172 19.7331 6.25609C19.7331 6.23234 19.7391 6.20746 19.7244 6.17761C19.6163 6.27972 19.5108 6.37922 19.4054 6.47872C18.8279 7.02461 18.2502 7.57049 17.6728 8.1165C17.1878 8.57507 16.6986 9.02966 16.2198 9.49433C15.9692 9.73761 15.6961 9.94245 15.364 10.058C14.5921 10.3266 13.7938 9.76497 13.7931 8.95553C13.792 7.56066 13.7929 6.16579 13.7925 4.77105C13.7925 4.67528 13.8083 4.68647 13.7053 4.68647C13.2326 4.68598 12.7601 4.68622 12.2874 4.68622C11.7601 4.68622 11.2956 4.33536 11.1558 3.83463C11.1402 3.77853 11.1508 3.76697 11.2095 3.76709C12.3542 3.76883 13.4991 3.76883 14.6438 3.76709C14.7 3.76709 14.7161 3.7794 14.7161 3.83724C14.7144 5.52427 14.7148 7.21142 14.7146 8.89845C14.7146 8.94422 14.7146 8.98974 14.7325 9.03302C14.7933 9.17953 14.975 9.21647 15.0979 9.1064C15.345 8.88501 15.5911 8.66275 15.8377 8.44087C16.6301 7.72782 17.4225 7.0149 18.2149 6.30186C19.0245 5.57352 19.8341 4.84518 20.6436 4.11696C20.6635 4.09905 20.6837 4.08151 20.7082 4.05999L20.7085 4.05975Z" fill="#FDFEFE"/>
<path d="M15.173 8.42868C15.1613 8.40741 15.1673 8.38452 15.1672 8.36276C15.1668 6.85396 15.1668 5.34516 15.167 3.83636C15.167 3.80104 15.1549 3.76622 15.2193 3.76646C16.1119 3.76883 17.0045 3.76808 17.8973 3.76808C17.9074 3.76808 17.9174 3.76908 17.9289 3.7697C17.9287 3.79694 17.9056 3.80477 17.8917 3.81758C17.7007 3.99494 17.5101 4.1728 17.3166 4.34767C17.0701 4.57055 16.7832 4.69468 16.4436 4.6861C16.3597 4.68398 16.2756 4.68672 16.1916 4.68523C16.1627 4.68473 16.1511 4.69194 16.1512 4.72304C16.1521 5.2535 16.1519 5.78396 16.1519 6.3286C16.2198 6.26492 16.2797 6.20932 16.3392 6.1531C16.9152 5.60871 17.4913 5.06432 18.0671 4.51968C18.5338 4.07815 18.9999 3.63612 19.4664 3.19446C19.6436 3.02668 19.8174 2.85517 19.9995 2.69273C20.2146 2.50095 20.4709 2.4058 20.7618 2.39921C20.9582 2.39473 21.1515 2.40256 21.3376 2.4752C21.7984 2.65517 22.0928 3.07817 22.0936 3.57032C22.0947 4.37242 22.094 5.17439 22.094 5.97649V6.05858C22.1846 5.97363 22.2645 5.89925 22.3439 5.82438C23.1517 5.06059 23.9595 4.29668 24.7672 3.53276C25.052 3.26337 25.3364 2.99347 25.6215 2.72432C26.2799 2.10269 27.3682 2.41488 27.5875 3.28812C27.6098 3.37692 27.6209 3.46722 27.6209 3.55863C27.6209 5.31195 27.6214 7.06527 27.6206 8.81859C27.6204 9.33201 27.2199 9.81608 26.7144 9.92081C26.6746 9.92902 26.6598 9.92305 26.6602 9.87815C26.6625 9.65638 26.6612 9.43462 26.6612 9.21286C26.6612 7.35382 26.6612 5.49478 26.6612 3.63575C26.6612 3.47095 26.536 3.36125 26.3869 3.39496C26.3451 3.40441 26.3098 3.42568 26.2785 3.45478C25.5453 4.13648 24.8123 4.81831 24.0785 5.49951C23.2332 6.2842 22.3874 7.06838 21.5418 7.85269C21.4332 7.95344 21.3247 8.05418 21.216 8.15455C21.2044 8.16525 21.1909 8.17383 21.1683 8.19112V8.10878C21.1683 6.59787 21.1679 5.08696 21.1692 3.57605C21.1692 3.46784 21.1339 3.38513 21.031 3.34073C20.9288 3.29645 20.8464 3.33414 20.7688 3.40403C19.2449 4.77627 17.7204 6.14763 16.196 7.51912C15.8688 7.81352 15.5418 8.10816 15.2142 8.40218C15.2029 8.41238 15.1943 8.4293 15.1733 8.4283L15.173 8.42868Z" fill="#FDFEFE"/>
<path d="M3.17461 9.41459C3.02866 9.18686 2.96375 8.94209 2.98669 8.67493C3.01668 8.32556 3.20083 8.06387 3.45405 7.83104C3.90238 7.41886 4.34062 6.99598 4.78315 6.57759C5.33043 6.06031 5.87782 5.5434 6.42497 5.026C6.88868 4.58745 7.35201 4.14841 7.81559 3.70974C8.17002 3.37442 8.52028 3.03438 8.88089 2.70553C9.21981 2.39646 9.62201 2.3038 10.0603 2.4477C10.5088 2.59496 10.7695 2.91572 10.8532 3.3743C10.8654 3.44109 10.8679 3.51036 10.8681 3.57852C10.8688 5.31319 10.8688 7.04785 10.8686 8.78251C10.8686 9.30601 10.5052 9.76869 9.99131 9.90127C9.92023 9.91955 9.91997 9.91955 9.91997 9.84543C9.91997 7.80405 9.91985 5.76268 9.9201 3.72118C9.9201 3.66024 9.91556 3.6019 9.8775 3.54992C9.79292 3.43437 9.63613 3.42094 9.52609 3.5228C9.24288 3.78486 8.9603 4.04767 8.67746 4.3101C7.96205 4.97414 7.24676 5.6383 6.53135 6.30234C5.86648 6.91962 5.20149 7.53689 4.53662 8.15417C4.0903 8.56846 3.64387 8.98288 3.19743 9.39705C3.1915 9.40265 3.18432 9.40688 3.17436 9.41434L3.17461 9.41459Z" fill="#FDFDFE"/>
<path d="M8.51441 6.26988C8.4127 6.36565 8.32207 6.4506 8.2317 6.53592C7.57843 7.1532 6.92515 7.77059 6.27213 8.38799C5.84019 8.79632 5.40736 9.2039 4.97706 9.61384C4.59452 9.97826 4.00049 10.0442 3.54661 9.7713C3.50073 9.74369 3.50678 9.72913 3.54119 9.69717C4.44062 8.86348 5.33892 8.0288 6.23785 7.19449C7.20547 6.2965 8.17347 5.39888 9.14122 4.50102C9.24356 4.40599 9.34553 4.3106 9.44724 4.2157C9.47056 4.22677 9.46111 4.2458 9.46111 4.26022C9.46161 6.12735 9.46149 7.9946 9.46237 9.86172C9.46237 9.90612 9.45418 9.91856 9.40628 9.90699C8.88825 9.78125 8.51441 9.31297 8.51441 8.78687C8.51441 7.97656 8.51441 7.16626 8.51441 6.35607V6.27001V6.26988Z" fill="#FDFEFE"/>
<path d="M6.18977 12.4175C6.30699 12.4774 6.41412 12.5194 6.51218 12.5792C6.91464 12.8246 7.01559 13.2183 6.89422 13.657C6.79742 14.0065 6.55126 14.2331 6.22985 14.3857C5.92256 14.5316 5.59359 14.5971 5.25517 14.6002C4.51821 14.607 3.78112 14.6039 3.04403 14.6065C2.99424 14.6066 2.9834 14.5953 2.99664 14.5472C3.27141 13.5412 3.54492 12.5349 3.8188 11.5286C3.86015 11.3768 3.89456 11.2229 3.94548 11.0742C4.09773 10.6298 4.47044 10.3535 4.95557 10.3389C5.33508 10.3276 5.71586 10.3177 6.09499 10.3483C6.41299 10.3739 6.71574 10.4531 6.96518 10.665C7.18903 10.8552 7.27889 11.1028 7.2707 11.3895C7.25558 11.9245 6.898 12.2568 6.38703 12.3735C6.32627 12.3873 6.2654 12.4007 6.18964 12.4176L6.18977 12.4175ZM4.00308 13.8773C4.02072 13.8788 4.03295 13.8808 4.0453 13.8808C4.46111 13.8809 4.8768 13.8819 5.29261 13.8804C5.42987 13.8799 5.5636 13.8545 5.69191 13.8049C6.00638 13.6833 6.15826 13.4032 6.07003 13.1077C6.00222 12.8805 5.78278 12.7197 5.51041 12.7111C5.27131 12.7036 5.0317 12.7069 4.79235 12.7084C4.74395 12.7087 4.73601 12.6956 4.74899 12.6523C4.77445 12.5671 4.79638 12.4809 4.81844 12.3947C4.83407 12.3342 4.85537 12.2762 4.89104 12.2241C4.92494 12.1746 4.96893 12.1476 5.03309 12.1491C5.15686 12.1521 5.28089 12.1491 5.40478 12.1502C5.56448 12.1516 5.72405 12.1513 5.88021 12.1125C6.1362 12.049 6.3327 11.9188 6.40215 11.6499C6.45471 11.446 6.38665 11.268 6.21674 11.1645C6.12007 11.1056 6.01293 11.077 5.90139 11.0686C5.57431 11.0444 5.24673 11.0613 4.91927 11.0587C4.82172 11.0579 4.74773 11.1267 4.72038 11.2277C4.53686 11.9046 4.35335 12.5815 4.16996 13.2584C4.11437 13.4636 4.05917 13.6691 4.00295 13.8773H4.00308Z" fill="#FDFDFE"/>
<path d="M20.2315 11.7034C20.2562 11.6817 20.2824 11.6614 20.3056 11.6381C20.5569 11.384 20.8681 11.2915 21.22 11.3021C21.6362 11.3145 21.914 11.5133 22.0519 11.9014C22.0592 11.9221 22.0611 11.9463 22.0836 11.9646C22.1798 11.8495 22.278 11.7365 22.3956 11.6417C22.7222 11.3786 23.0918 11.262 23.5135 11.3159C23.9017 11.3654 24.1797 11.6452 24.2316 12.0297C24.2664 12.287 24.2146 12.5329 24.1493 12.7774C23.9925 13.3652 23.8317 13.9519 23.6747 14.5396C23.6612 14.5902 23.641 14.608 23.5863 14.6071C23.3511 14.6037 23.1159 14.6039 22.8807 14.6069C22.8255 14.6076 22.8209 14.5919 22.8338 14.5447C22.9881 13.9841 23.141 13.4232 23.2936 12.8622C23.3225 12.756 23.3443 12.6482 23.3458 12.538C23.3498 12.2247 23.1736 12.048 22.8551 12.044C22.4918 12.0395 22.2649 12.232 22.1235 12.5431C22.0338 12.7404 21.9949 12.9534 21.9374 13.1605C21.8086 13.625 21.6832 14.0906 21.558 14.5562C21.5475 14.5955 21.5299 14.607 21.4892 14.6066C21.2519 14.6046 21.0146 14.6039 20.7773 14.6069C20.7197 14.6076 20.707 14.5972 20.723 14.5391C20.8789 13.9724 21.0319 13.4051 21.1857 12.8379C21.2107 12.7456 21.2273 12.652 21.2321 12.5565C21.2479 12.2387 21.072 12.0523 20.7486 12.0438C20.4162 12.0351 20.1529 12.2116 20.01 12.5428C19.9151 12.7626 19.8706 12.9976 19.8067 13.2265C19.6838 13.6671 19.5641 14.1085 19.4455 14.5501C19.4342 14.5917 19.4204 14.6071 19.3751 14.6067C19.1336 14.6044 18.8921 14.6041 18.6506 14.6067C18.5967 14.6074 18.5947 14.5927 18.6073 14.5465C18.8744 13.5627 19.1396 12.5784 19.4056 11.5944C19.4418 11.4604 19.5607 11.371 19.7166 11.3675C19.8992 11.3635 20.082 11.3677 20.2646 11.3655C20.3075 11.365 20.3017 11.3839 20.2945 11.4104C20.2686 11.5059 20.2432 11.6014 20.2176 11.6971C20.2221 11.6992 20.2265 11.7013 20.2311 11.7036L20.2315 11.7034Z" fill="#FDFDFE"/>
<path d="M14.7838 3.30987C13.5907 3.30987 12.3977 3.30987 11.2046 3.30987C11.1565 3.30987 11.1382 3.28677 11.1498 3.24059C11.28 2.71722 11.7511 2.36125 12.3165 2.36113C14.0767 2.36076 15.8369 2.36101 17.597 2.36101C17.7483 2.36101 17.8995 2.36063 18.0508 2.36101C18.1594 2.36138 18.264 2.38203 18.3606 2.4319C18.5693 2.53973 18.6553 2.76759 18.5807 3.01398C18.551 3.11198 18.5006 3.20004 18.4399 3.28288C18.4242 3.30427 18.4068 3.31223 18.3818 3.31011C18.3671 3.30887 18.3524 3.30987 18.3377 3.30987C17.153 3.30987 15.9683 3.30987 14.7837 3.30987H14.7838Z" fill="#FDFEFE"/>
<path d="M9.24983 13.2089C8.9559 13.2089 8.66185 13.2079 8.36792 13.2099C8.31864 13.2103 8.30666 13.2015 8.32242 13.1518C8.35166 13.0592 8.37359 12.9643 8.39829 12.8703C8.40989 12.8258 8.42804 12.7843 8.45136 12.7448C8.48816 12.6823 8.53921 12.6523 8.61609 12.653C8.94998 12.6557 9.28386 12.6532 9.61774 12.6552C9.66262 12.6555 9.67988 12.6425 9.68682 12.599C9.70307 12.4975 9.70572 12.3969 9.68064 12.2969C9.62102 12.0589 9.41331 11.9093 9.13627 11.9009C8.71251 11.8881 8.39552 12.0721 8.17835 12.4218C7.98626 12.7311 7.91228 13.0686 7.99458 13.4276C8.06592 13.739 8.28171 13.9288 8.60046 13.9781C8.90687 14.0253 9.19261 13.9712 9.45755 13.8113C9.55384 13.7531 9.56468 13.7551 9.63148 13.8429C9.71467 13.9521 9.7971 14.0619 9.87878 14.1722C9.92919 14.2404 9.92667 14.2501 9.85521 14.2991C9.49007 14.5493 9.08093 14.647 8.64181 14.6356C8.38367 14.629 8.13323 14.584 7.9003 14.4679C7.50416 14.2702 7.28598 13.9434 7.21892 13.5195C7.05759 12.5002 7.73078 11.5229 8.74793 11.301C9.14345 11.2147 9.53418 11.2348 9.8963 11.4353C10.2351 11.6229 10.4134 11.9203 10.4681 12.2946C10.5029 12.5324 10.4744 12.765 10.4069 12.9943C10.3618 13.1474 10.2824 13.2082 10.1193 13.2087C9.82949 13.2095 9.53973 13.2089 9.24996 13.2089H9.24983Z" fill="#FDFDFE"/>
<path d="M26.2153 14.256C25.9002 14.5113 25.5441 14.6035 25.1656 14.6021C24.8208 14.601 24.5372 14.4511 24.3298 14.1773C24.1333 13.9177 24.1469 13.56 24.3552 13.2668C24.4995 13.0636 24.6937 12.9183 24.9134 12.8037C25.3281 12.5872 25.7698 12.4971 26.2375 12.5331C26.3349 12.5406 26.3397 12.5493 26.2997 12.6386C26.2541 12.7407 26.2037 12.8407 26.1578 12.9427C26.1422 12.9773 26.1201 12.9903 26.0821 12.9942C25.8001 13.0231 25.5393 13.113 25.3016 13.2661C25.247 13.3012 25.1982 13.3433 25.1519 13.3888C24.9123 13.6245 25.0354 13.971 25.3424 14.0495C25.6632 14.1315 25.9481 14.0411 26.194 13.8288C26.3301 13.7111 26.4171 13.5615 26.4617 13.3885C26.5267 13.136 26.5918 12.8836 26.6547 12.6306C26.6717 12.5622 26.6794 12.4918 26.6718 12.4211C26.6528 12.2425 26.5482 12.1323 26.3824 12.0732C26.2008 12.0084 26.0122 12.0057 25.8229 12.0181C25.5936 12.0331 25.3703 12.0794 25.1538 12.1553C25.1139 12.1692 25.1002 12.165 25.093 12.1222C25.078 12.0324 25.0558 11.9438 25.0392 11.8543C25.0029 11.659 25.0911 11.51 25.2874 11.4442C25.457 11.3874 25.6342 11.3628 25.8117 11.3459C26.1051 11.318 26.3984 11.3156 26.6887 11.3789C26.8881 11.4225 27.0744 11.4952 27.2256 11.6353C27.4417 11.8351 27.499 12.092 27.4867 12.3718C27.4747 12.6435 27.3836 12.8987 27.3152 13.1582C27.1931 13.6224 27.0647 14.0851 26.9408 14.5489C26.9293 14.5918 26.9127 14.6076 26.8656 14.6071C26.6347 14.6045 26.4037 14.6052 26.1727 14.6066C26.1322 14.6068 26.1171 14.6025 26.1321 14.5562C26.1625 14.4621 26.1854 14.3657 26.2153 14.2564V14.256Z" fill="#FDFDFE"/>
<path d="M17.5822 14.2565C17.2683 14.5105 16.9128 14.6022 16.534 14.6027C16.2061 14.603 15.9315 14.4645 15.7241 14.2135C15.489 13.9291 15.504 13.5409 15.7547 13.223C15.9332 12.9966 16.1691 12.8459 16.4315 12.7311C16.8093 12.5659 17.2039 12.4995 17.6156 12.5346C17.6974 12.5415 17.7056 12.5538 17.6729 12.6267C17.6239 12.7363 17.5689 12.8434 17.5197 12.953C17.5034 12.9892 17.4755 12.9906 17.4438 12.9943C17.1645 13.0255 16.9053 13.1137 16.6695 13.2658C16.6007 13.3102 16.5387 13.3624 16.4865 13.4257C16.3313 13.6136 16.3762 13.873 16.5876 13.9976C16.7659 14.1028 16.9581 14.0976 17.1487 14.0472C17.4981 13.9549 17.7315 13.7376 17.8276 13.3903C17.8975 13.137 17.9594 12.8814 18.0221 12.6262C18.0383 12.5601 18.0454 12.4917 18.0382 12.4227C18.0184 12.2352 17.9059 12.1244 17.7324 12.0673C17.5562 12.0092 17.3737 12.006 17.1907 12.0184C16.9593 12.0342 16.734 12.0807 16.5156 12.1577C16.4832 12.1691 16.4692 12.1684 16.4626 12.1293C16.446 12.0336 16.4206 11.9392 16.4047 11.8433C16.3732 11.6522 16.4612 11.511 16.6532 11.4445C16.7863 11.3985 16.9258 11.377 17.065 11.3596C17.3955 11.3182 17.7261 11.3088 18.0545 11.3792C18.2781 11.4271 18.4836 11.5123 18.6404 11.6835C18.8227 11.8825 18.866 12.125 18.8529 12.3833C18.8401 12.6361 18.7575 12.874 18.6936 13.1155C18.5671 13.5932 18.4351 14.0696 18.3083 14.5473C18.2956 14.5955 18.2762 14.6076 18.2281 14.6072C17.9992 14.6045 17.7704 14.6047 17.5415 14.6072C17.4928 14.6076 17.4865 14.5957 17.5 14.5522C17.5289 14.4596 17.5523 14.3655 17.5822 14.2569V14.2565Z" fill="#FDFDFE"/>
<path d="M13.9554 14.6351C13.4974 14.6241 13.0797 14.5082 12.7059 14.2536C12.6512 14.2164 12.6078 14.17 12.5846 14.1071C12.5662 14.0574 12.5754 14.0118 12.6111 13.9745C12.722 13.8586 12.8358 13.7453 12.9461 13.6288C12.9757 13.5974 12.9902 13.617 13.011 13.6351C13.2139 13.8125 13.4437 13.9398 13.7107 13.9956C13.8802 14.031 14.051 14.0482 14.2215 14.0015C14.2955 13.9812 14.3613 13.9456 14.4117 13.8863C14.5259 13.7521 14.5097 13.579 14.371 13.4701C14.2649 13.3866 14.1398 13.3372 14.017 13.2845C13.8536 13.2145 13.6913 13.1425 13.5388 13.0513C13.147 12.8171 13.0114 12.5253 13.1476 12.0458C13.2632 11.639 13.5637 11.4084 13.9658 11.3082C14.4768 11.1808 14.9594 11.2763 15.4163 11.5223C15.4698 11.5512 15.519 11.5873 15.5555 11.6368C15.5993 11.6961 15.5987 11.7503 15.5508 11.8065C15.4494 11.9253 15.3451 12.0417 15.2454 12.1618C15.2167 12.1962 15.1997 12.1802 15.1748 12.1624C14.9721 12.0175 14.7543 11.9054 14.503 11.8696C14.3947 11.8542 14.2859 11.849 14.1778 11.8749C14.1409 11.8838 14.1056 11.8962 14.0722 11.9136C13.858 12.0246 13.8353 12.2776 14.0274 12.4216C14.1419 12.5074 14.274 12.5616 14.4039 12.6192C14.5855 12.6998 14.7667 12.7816 14.9299 12.8961C15.1245 13.0325 15.2691 13.2044 15.28 13.4498C15.2996 13.8871 15.1206 14.2249 14.734 14.4467C14.5192 14.5698 14.2827 14.62 14.0362 14.6305C14.0069 14.6317 13.9776 14.6337 13.9556 14.635L13.9554 14.6351Z" fill="#FDFDFE"/>
<path d="M11.7836 11.6386C12.1155 11.348 12.5068 11.3161 12.9053 11.3119C13.0173 11.3107 13.06 11.3711 13.0328 11.4784C12.9922 11.6388 12.9516 11.7991 12.9109 11.9594C12.8843 12.0641 12.8429 12.1008 12.7336 12.1074C12.4869 12.1222 12.2468 12.1654 12.0181 12.2606C11.8076 12.3485 11.6548 12.4871 11.5756 12.7065C11.4196 13.1396 11.3033 13.5835 11.1876 14.0278C11.1422 14.2019 11.1002 14.377 11.0585 14.5521C11.0498 14.5888 11.0382 14.6072 10.9938 14.6067C10.7671 14.6041 10.5403 14.6039 10.3136 14.6067C10.259 14.6074 10.2575 14.5892 10.2694 14.5459C10.4294 13.9572 10.5813 13.3662 10.7497 12.7798C10.8764 12.3384 10.9882 11.8932 11.1103 11.4507C11.1404 11.3416 11.2045 11.2903 11.3174 11.29C11.4833 11.2896 11.6491 11.2911 11.815 11.2891C11.8595 11.2886 11.8741 11.2959 11.8595 11.3441C11.8316 11.4358 11.8111 11.5297 11.7835 11.6386H11.7836Z" fill="#FDFDFE"/>
<path d="M4.00311 13.8773C4.05933 13.6691 4.11453 13.4637 4.17012 13.2584C4.35351 12.5814 4.53702 11.9046 4.72054 11.2277C4.74789 11.1267 4.82188 11.0578 4.91943 11.0587C5.24676 11.0613 5.57447 11.0444 5.90155 11.0686C6.0131 11.077 6.12023 11.1056 6.21691 11.1645C6.38681 11.2681 6.45487 11.4461 6.40231 11.6498C6.33286 11.9187 6.13624 12.049 5.88037 12.1125C5.72434 12.1513 5.56464 12.1516 5.40495 12.1502C5.28105 12.1491 5.15715 12.1521 5.03325 12.1491C4.96909 12.1476 4.92511 12.1746 4.8912 12.2241C4.85566 12.2762 4.83423 12.3342 4.8186 12.3947C4.79642 12.4808 4.77461 12.5671 4.74915 12.6523C4.73617 12.6956 4.74411 12.7086 4.79251 12.7084C5.03186 12.7069 5.27134 12.7035 5.51057 12.7111C5.78282 12.7197 6.00238 12.8807 6.07019 13.1076C6.15842 13.4032 6.00654 13.6833 5.69207 13.8049C5.56376 13.8545 5.43015 13.8799 5.29277 13.8804C4.87696 13.8819 4.46127 13.8809 4.04546 13.8808C4.03311 13.8808 4.02076 13.8788 4.00324 13.8773H4.00311Z" fill="#0073C0"/>
</g>
<defs>
<clipPath id="clip0_353_4415">
<rect width="29" height="17" fill="white" transform="translate(0.801147)"/>
</clipPath>
</defs>
</svg>
