<svg width="36" height="37" viewBox="0 0 36 37" fill="none" xmlns="http://www.w3.org/2000/svg">
<g style="mix-blend-mode:luminosity">
<path d="M33.0993 16.0931C34.6025 14.3369 35.6046 12.2077 36 9.92962C36 9.8944 35.9472 9.83677 35.9055 9.80475C35.8639 9.77273 35.8415 9.77594 35.8287 9.80475C33.786 15.3647 30.4354 18.1295 25.7241 20.0506C25.5304 19.2774 25.3623 18.4961 25.2327 17.7085C27.0416 17.2122 28.8026 16.4902 30.2305 15.448C31.7817 14.3097 33.0736 12.8529 34.0197 11.1767C34.9018 9.63346 35.5454 7.9669 35.9296 6.23151C36.0176 5.82008 35.976 5.6728 35.8367 5.56553L35.7727 5.51751C35.715 5.47428 35.6718 5.51751 35.6558 5.59595C35.5534 6.01859 35.4237 6.43323 35.2668 6.83826C33.3986 11.8555 30.421 14.8732 25.0213 16.1236C24.9381 15.2399 24.9173 14.3513 24.9573 13.4644C28.7497 12.664 31.9578 10.0273 33.7044 6.59172C34.4968 4.9876 35.0923 3.29224 35.4765 1.54404C35.5245 1.37594 35.4605 1.19664 35.3164 1.09899C35.2796 1.07177 35.238 1.05576 35.1932 1.04936C35.1035 1.00453 35.0011 0.993326 34.905 1.01894C33.1569 1.40316 31.46 1.9987 29.8559 2.79275C26.4349 4.52974 23.8143 7.71716 22.9947 11.4857C22.1078 11.5241 21.2209 11.5017 20.3373 11.4169C21.5891 6.05862 24.6035 3.09212 29.6014 1.23506C30.0064 1.07817 30.4226 0.946899 30.8453 0.844441C30.9157 0.828432 30.9653 0.786808 30.9221 0.727574L30.8741 0.665138C30.7668 0.525859 30.6195 0.482634 30.2081 0.572285C28.4728 0.954904 26.8063 1.59847 25.2647 2.48218C23.587 3.42671 22.1302 4.71865 20.992 6.27154C19.9611 7.68194 19.2439 9.42053 18.7508 11.2072C17.9648 11.0775 17.1884 10.9094 16.4168 10.7141C18.3378 6.0362 21.1073 2.7095 26.6414 0.671542C26.6782 0.658735 26.6718 0.626716 26.6414 0.594698C26.611 0.56268 26.5518 0.495442 26.5165 0.500244C24.2353 0.894069 22.1046 1.89784 20.3469 3.4027C18.1825 5.22454 16.4152 7.52825 15.0272 10.3331C14.3389 10.1297 13.6537 9.90881 12.9749 9.67508C10.9226 8.96908 5.64142 6.54529 3.60193 4.7955C2.96159 4.24478 2.65263 4.17114 2.31165 4.41128C2.12915 4.56496 1.96426 4.73786 1.82018 4.92837C1.01335 6.07302 0.400228 7.34095 0.00321629 8.68411C-0.0271999 8.79938 0.163302 8.90984 0.355404 8.82499C1.30791 8.40075 5.4173 10.1906 6.60834 10.6596C7.37835 10.9622 8.16116 11.2392 8.94558 11.5001C10.5833 12.0476 12.2337 12.5455 13.9082 12.9409C13.809 13.2051 13.7129 13.4708 13.6201 13.7414C13.3383 14.5675 13.1014 15.4063 12.9045 16.2452C8.95519 15.6609 5.5982 14.6443 3.41784 13.7302C1.88262 13.101 0.922106 12.9457 0.259353 13.2915C0.148894 13.3508 0.0336325 13.5429 0.0880615 13.8439C0.260954 14.8076 0.568317 15.7409 1.00375 16.6166C1.37034 17.3579 1.57525 17.1177 1.92584 17.0361C2.4189 16.924 3.00642 17.0761 3.48507 17.1706C4.41517 17.3515 5.33566 17.5852 6.26255 17.7869C8.29724 18.2176 10.3623 18.4945 12.4386 18.6162C12.2641 19.7368 12.1489 20.827 12.0785 21.8708C11.8127 21.8596 11.5502 21.8468 11.294 21.8308C8.26682 21.6579 4.849 20.8158 3.7332 20.5245C3.62275 20.4957 3.62915 20.8126 3.70599 20.8975C4.19905 21.4546 5.16116 22.4552 5.37888 22.6969C5.91196 23.3133 6.60674 23.7711 7.38315 24.0177C8.36927 24.3378 9.41463 24.3971 10.4408 24.4339C10.921 24.4515 11.4461 24.4595 11.9904 24.4579C11.9904 25.023 11.9904 25.5625 12.0144 26.0588C12.0512 27.0866 12.1121 28.14 12.4306 29.1166C12.6756 29.893 13.1302 30.5862 13.7449 31.1209C13.9867 31.3386 14.9872 32.3008 15.5443 32.7939C15.6291 32.8707 15.9477 32.8787 15.9173 32.7667C15.6259 31.646 14.7839 28.2329 14.611 25.2071C14.595 24.9334 14.5806 24.6532 14.5694 24.3699C15.6115 24.3026 16.7065 24.189 17.8223 24.0161C17.9424 26.1085 18.2225 28.188 18.6564 30.2372C18.8565 31.1641 19.0902 32.0847 19.2711 33.0164C19.3655 33.4967 19.5192 34.081 19.4056 34.5757C19.3239 34.9263 19.0854 35.1296 19.825 35.4978C20.7006 35.9317 21.6355 36.2406 22.5977 36.4135C22.8986 36.4664 23.0907 36.3527 23.15 36.2406C23.5005 35.5731 23.3453 34.6157 22.7129 33.0868C21.7988 30.8984 20.7759 27.5269 20.1916 23.5598C21.0576 23.3597 21.9125 23.1163 22.7529 22.8298C23.0027 22.7433 23.2492 22.6553 23.4941 22.564C23.8895 24.245 24.3906 25.9067 24.9349 27.5541C25.1958 28.3401 25.4728 29.1214 25.777 29.8914C26.2444 31.0825 28.0342 35.1936 27.6115 36.1446C27.5251 36.3367 27.6355 36.5272 27.7524 36.4968C29.0955 36.1014 30.3634 35.4866 31.5064 34.6797C31.6969 34.5357 31.8698 34.3724 32.0235 34.1899C32.2636 33.8473 32.1836 33.5415 31.6393 32.8995C29.8895 30.8584 27.4643 25.577 26.7599 23.5246C26.5229 22.8378 26.302 22.143 26.0955 21.4434C28.945 20.0586 31.2631 18.28 33.0993 16.0931ZM29.286 4.26879C30.7268 3.14816 32.4013 2.3477 34.1286 1.78097L34.9723 1.51522C34.889 1.78258 34.8042 2.04833 34.7193 2.31568C34.1478 4.04307 33.357 5.71922 32.2316 7.15844C30.4226 9.47336 27.9285 10.7301 25.2231 11.2312C25.7353 8.54483 26.9872 6.06822 29.286 4.26879ZM22.6777 13.7718C22.6201 14.5723 22.6089 15.3727 22.6281 16.1844C22.6281 16.2933 22.6281 16.4005 22.6409 16.5046C21.6916 16.607 20.7199 16.6647 19.7465 16.6951C19.7722 15.7169 19.8362 14.7468 19.9418 13.7974L20.3164 13.8118C21.1025 13.8375 21.8933 13.8278 22.6777 13.7718ZM15.5347 13.2915C16.4152 13.4516 17.2956 13.5941 18.1953 13.6854C18.0128 14.7372 17.8944 15.7666 17.8239 16.6983C16.9739 16.6743 16.1254 16.6246 15.2914 16.5382C15.1521 16.5254 15.016 16.5094 14.8799 16.495C15.032 15.4144 15.2497 14.3449 15.5347 13.2915ZM14.5166 21.9365C14.5166 20.8943 14.5566 19.8137 14.6398 18.7218C15.6724 18.7475 16.7033 18.7443 17.7311 18.7218C17.7087 19.7512 17.7055 20.7838 17.7311 21.8164C16.6377 21.8932 15.5587 21.9365 14.5166 21.9365ZM19.9434 21.5827C19.9306 21.461 19.9178 21.3409 19.905 21.2177C19.8234 20.366 19.7738 19.5015 19.7449 18.6338C20.6814 18.565 21.7028 18.4481 22.7545 18.2688C22.8458 19.1637 22.9803 20.0522 23.1467 20.9343C22.0934 21.2145 21.024 21.429 19.9434 21.5763V21.5827Z" fill="url(#paint0_linear_353_4465)"/>
</g>
<defs>
<linearGradient id="paint0_linear_353_4465" x1="9.5379" y1="26.9297" x2="35.3478" y2="1.12077" gradientUnits="userSpaceOnUse">
<stop stop-color="#1751A4"/>
<stop offset="0.52" stop-color="#307F75"/>
<stop offset="1" stop-color="#49AB48"/>
</linearGradient>
</defs>
</svg>
