<svg width="15" height="14" viewBox="0 0 15 14" fill="none" xmlns="http://www.w3.org/2000/svg">
<path d="M7.5 1C4.188 1 1.5 3.688 1.5 7C1.5 10.312 4.188 13 7.5 13C10.812 13 13.5 10.312 13.5 7C13.5 3.688 10.818 1 7.5 1Z" fill="#90A3BF"/>
<rect x="2.5" y="2" width="10" height="10" rx="5" fill="white"/>
<path d="M7.5 3C5.292 3 3.5 4.792 3.5 7C3.5 9.208 5.292 11 7.5 11C9.708 11 11.5 9.208 11.5 7C11.5 4.792 9.712 3 7.5 3Z" fill="#90A3BF"/>
<rect x="8.5" y="6" width="4" height="2" fill="#90A3BF"/>
<rect x="2.5" y="6" width="4" height="2" fill="#90A3BF"/>
<rect x="6.5" y="8" width="2" height="4" fill="#90A3BF"/>
<rect x="4.5" y="4" width="6" height="6" rx="3" fill="white"/>
</svg>
