<svg width="17" height="12" viewBox="0 0 17 12" fill="none" xmlns="http://www.w3.org/2000/svg">
<path fill-rule="evenodd" clip-rule="evenodd" d="M16 0.5H15C14.4477 0.5 14 0.947715 14 1.5V10.1667C14 10.719 14.4477 11.1667 15 11.1667H16C16.5523 11.1667 17 10.719 17 10.1667V1.5C17 0.947715 16.5523 0.5 16 0.5ZM10.3333 2.83333H11.3333C11.8856 2.83333 12.3333 3.28105 12.3333 3.83333V10.1667C12.3333 10.719 11.8856 11.1667 11.3333 11.1667H10.3333C9.78105 11.1667 9.33333 10.719 9.33333 10.1667V3.83333C9.33333 3.28105 9.78105 2.83333 10.3333 2.83333ZM6.66667 5.16667H5.66667C5.11438 5.16667 4.66667 5.61438 4.66667 6.16667V10.1667C4.66667 10.719 5.11438 11.1667 5.66667 11.1667H6.66667C7.21895 11.1667 7.66667 10.719 7.66667 10.1667V6.16667C7.66667 5.61438 7.21895 5.16667 6.66667 5.16667ZM2 7.16667H1C0.447715 7.16667 0 7.61438 0 8.16667V10.1667C0 10.719 0.447715 11.1667 1 11.1667H2C2.55228 11.1667 3 10.719 3 10.1667V8.16667C3 7.61438 2.55228 7.16667 2 7.16667Z" fill="black"/>
</svg>
