<svg width="32" height="32" viewBox="0 0 32 32" fill="none" xmlns="http://www.w3.org/2000/svg">
<path d="M25.0532 5.96007C24.1587 6.01119 23.2615 5.93941 22.3865 5.74674C21.3311 5.38534 20.344 4.84897 19.4665 4.16007C18.7158 3.62793 18.003 3.0443 17.3332 2.41341C17.0492 2.14815 16.6751 2.00061 16.2865 2.00061C15.8979 2.00061 15.5238 2.14815 15.2398 2.41341C14.5878 3.02435 13.9023 3.59857 13.1865 4.13341C12.3036 4.83136 11.3128 5.38079 10.2532 5.76007C9.25656 5.98526 8.23276 6.06608 7.21317 6.00007C6.37831 5.9655 5.54596 5.88538 4.71983 5.76007C4.51796 5.73015 4.31213 5.74118 4.11461 5.79251C3.91709 5.84384 3.73193 5.93442 3.57018 6.05885C3.40842 6.18328 3.27337 6.33901 3.1731 6.51675C3.07282 6.6945 3.00936 6.89061 2.9865 7.09341C2.91983 7.73341 2.7465 9.40007 2.6665 11.2534C2.55439 13.1051 2.67082 14.9635 3.01317 16.7867C3.97856 19.8074 5.7541 22.5053 8.1465 24.5867C10.0481 26.3804 12.11 27.9961 14.3065 29.4134C14.8951 29.8176 15.5924 30.0339 16.3065 30.0339C17.0206 30.0339 17.7178 29.8176 18.3065 29.4134C20.3865 27.9591 22.332 26.3215 24.1198 24.5201C26.3722 22.4234 28.0402 19.7766 28.9598 16.8401" stroke="#1A202C" stroke-width="2.5" stroke-linecap="round" stroke-linejoin="round"/>
<path d="M14.6667 14.6667L18.48 18.48C18.5037 18.5059 18.5326 18.5265 18.5647 18.5406C18.5968 18.5548 18.6316 18.5621 18.6667 18.5621C18.7018 18.5621 18.7365 18.5548 18.7686 18.5406C18.8007 18.5265 18.8296 18.5059 18.8533 18.48L29.3333 8" stroke="#3563E9" stroke-width="2.5" stroke-linecap="round" stroke-linejoin="round"/>
</svg>
