<svg width="32" height="33" viewBox="0 0 32 33" fill="none" xmlns="http://www.w3.org/2000/svg">
<path d="M25.0532 6.46004C24.1587 6.51116 23.2615 6.43938 22.3865 6.24671C21.3311 5.88531 20.344 5.34894 19.4665 4.66004C18.7158 4.12789 18.003 3.54427 17.3332 2.91338C17.0492 2.64812 16.6751 2.50058 16.2865 2.50058C15.8979 2.50058 15.5238 2.64812 15.2398 2.91338C14.5878 3.52432 13.9023 4.09854 13.1865 4.63338C12.3036 5.33133 11.3128 5.88076 10.2532 6.26004C9.25656 6.48523 8.23276 6.56605 7.21317 6.50004C6.37831 6.46547 5.54596 6.38535 4.71983 6.26004C4.51796 6.23012 4.31213 6.24115 4.11461 6.29248C3.91709 6.34381 3.73193 6.43439 3.57018 6.55882C3.40842 6.68325 3.27337 6.83898 3.1731 7.01672C3.07282 7.19447 3.00936 7.39058 2.9865 7.59338C2.91983 8.23338 2.7465 9.90004 2.6665 11.7534C2.55439 13.6051 2.67082 15.4635 3.01317 17.2867C3.97856 20.3073 5.7541 23.0052 8.1465 25.0867C10.0481 26.8804 12.11 28.496 14.3065 29.9134C14.8951 30.3176 15.5924 30.5339 16.3065 30.5339C17.0206 30.5339 17.7178 30.3176 18.3065 29.9134C20.3865 28.4591 22.332 26.8214 24.1198 25.02C26.3722 22.9233 28.0402 20.2766 28.9598 17.34" stroke="#1A202C" stroke-width="2.5" stroke-linecap="round" stroke-linejoin="round"/>
<path d="M14.6667 15.1667L18.48 18.98C18.5037 19.0059 18.5326 19.0265 18.5647 19.0406C18.5968 19.0548 18.6316 19.0621 18.6667 19.0621C18.7018 19.0621 18.7365 19.0548 18.7686 19.0406C18.8007 19.0265 18.8296 19.0059 18.8533 18.98L29.3333 8.5" stroke="#3563E9" stroke-width="2.5" stroke-linecap="round" stroke-linejoin="round"/>
</svg>
