<svg width="41" height="41" viewBox="0 0 41 41" fill="none" xmlns="http://www.w3.org/2000/svg">
<g style="mix-blend-mode:luminosity">
<path d="M20.9464 27.3395C20.9464 27.3395 21.4891 27.8471 21.3887 28.1332C21.1585 28.7914 20.1278 29.0972 19.4585 28.9153C18.39 28.6247 17.413 27.3897 17.4226 26.2762C17.4366 24.6421 19.0977 23.3194 20.4764 22.4557C21.8957 21.5665 23.6989 21.325 25.3704 21.3527C27.1902 21.3832 29.1324 21.7296 30.656 22.7313C31.504 23.2889 32.2041 24.1709 32.5353 25.1339C32.7231 25.6798 32.5353 26.867 32.5353 26.867C32.5353 26.867 34.0305 24.7902 34.5712 23.637C35.2155 22.2626 36.1616 20.8127 35.9806 19.3041C35.8977 18.6134 35.4437 17.9426 34.8842 17.5315C33.09 16.2184 30.642 15.9906 28.4244 15.9166C26.132 15.8402 23.8009 16.3317 21.6513 17.1376C20.1869 17.6855 18.7533 18.4601 17.6186 19.5402C16.3408 20.7566 15.116 22.2367 14.6823 23.9519C14.4011 25.0635 14.4612 26.3656 14.9955 27.3789C15.4781 28.2938 16.4287 28.9622 17.3836 29.3485C18.3189 29.7267 19.4391 29.8964 20.3983 29.5847C21.0329 29.3788 21.9043 28.9554 21.9253 28.2846C21.9561 27.2972 20.9466 27.3392 20.9466 27.3392L20.9464 27.3395Z" fill="#18D1FF"/>
<path d="M20.415 27.9207C20.415 27.9207 20.2734 27.4815 20.3944 27.3239C20.5908 27.0687 21.0331 26.9995 21.3351 27.1127C21.7711 27.2788 22.1614 27.7769 22.1623 28.2451C22.1632 28.8465 21.6381 29.4301 21.1052 29.7026C19.9417 30.2975 18.4247 30.1282 17.19 29.7026C16.1429 29.3418 15.1172 28.6204 14.567 27.6543C13.7682 26.253 13.5817 24.4232 13.9405 22.8488C14.3069 21.2409 15.4971 19.894 16.6421 18.7128C17.873 17.443 19.3624 16.3667 20.988 15.6798C22.8501 14.8933 24.925 14.6831 26.9392 14.5374C28.6721 14.4122 30.4397 14.4484 32.1466 14.7737C33.2172 14.9779 34.3004 15.2815 35.2394 15.8372C35.6088 16.0559 36.1938 16.7039 36.1938 16.7039C36.1938 16.7039 35.937 13.3881 35.4353 11.8195C35.0008 10.4613 34.5395 8.98742 33.5169 7.99899C32.7929 7.29897 31.7581 6.95261 30.7763 6.74124C28.9114 6.34009 26.9353 6.43656 25.0603 6.77777C22.8699 7.17627 20.7533 8.03469 18.7909 9.09186C16.954 10.0815 15.224 11.3276 13.7451 12.8045C12.5337 14.0144 11.3913 15.3741 10.6912 16.9405C9.98587 18.5187 9.62263 20.2912 9.63418 22.0216C9.64342 23.4072 9.92827 24.8347 10.5346 26.0788C11.1018 27.2427 12.0109 28.2435 13.0013 29.0725C13.8631 29.7938 14.8771 30.3566 15.9376 30.7219C16.9367 31.066 18.0154 31.2599 19.07 31.1994C20.3036 31.1289 21.7076 31.0317 22.6483 30.226C23.1979 29.7551 23.5951 28.9641 23.5392 28.2401C23.4999 27.7329 23.1386 27.2306 22.7087 26.9626C22.2392 26.6697 21.5963 26.4894 21.0626 26.6335C20.5675 26.767 20.1523 27.0342 20.0897 27.4505C20.06 27.648 20.4172 27.9208 20.4172 27.9208L20.415 27.9207Z" fill="#0166FE"/>
<path d="M20.5801 28.2727C20.5801 28.2727 19.8209 28.1183 19.6232 27.8327C19.3393 27.4197 19.3591 26.8374 19.6377 26.4213C20.0965 25.7363 21.079 25.4738 21.8994 25.4417C23.2865 25.3844 24.9814 25.6875 25.8462 26.78C26.5679 27.692 26.7138 29.2203 26.1898 30.2602C25.664 31.3037 24.2995 31.709 23.1855 32.0448C21.4417 32.5703 19.5289 32.5977 17.7307 32.3124C15.8731 32.0177 14.0586 31.2908 12.4535 30.3033C10.685 29.2168 9.06315 27.7937 7.84155 26.1095C6.53116 24.303 5.55283 22.1852 5.09205 19.9993C4.67533 18.0206 4.73342 15.9147 5.13661 13.9317C5.59752 11.6843 6.48592 9.54769 7.75293 7.63951C8.71955 6.18999 10.0195 4.94968 11.4336 3.93651C12.705 3.02662 14.1682 2.38571 15.6465 1.88427C16.8468 1.47698 18.1063 1.19305 19.3713 1.12581C20.943 1.04229 22.5356 1.22875 24.0719 1.57195C25.3592 1.85953 26.63 2.29007 27.7968 2.91023C29.1715 3.64196 31.5662 5.67644 31.5662 5.67644C31.5662 5.67644 26.7105 5.20953 24.3376 5.63161C21.5419 6.12922 18.7817 7.13725 16.3556 8.6208C14.5491 9.72546 12.9559 11.2276 11.6551 12.9038C10.6132 14.2462 9.7842 15.7902 9.26202 17.4101C8.73093 19.0539 8.45037 20.8172 8.55236 22.5407C8.62168 23.7073 8.92535 24.8832 9.43927 25.9312C9.95187 26.9772 10.6973 27.9275 11.5679 28.6974C12.699 29.6949 14.0083 30.4671 15.426 30.9728C16.5677 31.3773 17.8074 31.5234 19.018 31.5081C20.0531 31.4948 21.1562 31.447 22.0778 30.9728C22.8501 30.5753 23.6763 29.9766 23.9402 29.1436C24.1551 28.4669 24.0249 27.584 23.5629 27.0465C23.1071 26.5162 22.278 26.3773 21.5812 26.3773C21.0696 26.3772 20.4965 26.513 20.1264 26.8682C19.9197 27.0664 19.8133 27.3209 19.8887 27.5979C19.9745 27.912 20.5809 28.2737 20.5809 28.2737L20.5814 28.2732L20.5801 28.2727ZM6.67871 34.529L4.93922 36.2097L4.28782 36.8727C4.90594 37.582 5.52664 38.2888 6.14993 38.993L6.77047 39.7639V39.8024L6.34896 39.7792L5.91987 39.8024C5.83812 39.6842 5.7512 39.566 5.65911 39.4478C5.57109 39.3245 5.4817 39.2082 5.39093 39.0991L3.72043 37.1332C3.6949 37.1127 3.66168 37.0999 3.62075 37.0947C3.60028 37.0995 3.59005 37.1047 3.59005 37.1101V39.8006L3.25288 39.7774L2.91571 39.8006V34.5272L3.25288 34.5504L3.59005 34.5272V36.9094C3.59511 36.9298 3.61811 36.935 3.65903 36.9248C3.70502 36.9145 3.74903 36.8939 3.79106 36.863C3.83177 36.8271 3.91605 36.7474 4.0439 36.6239C4.08989 36.5777 4.13841 36.5314 4.18946 36.4851L6.075 34.5275L6.38148 34.5508L6.67871 34.529Z" fill="#0100CC"/>
<path d="M12.2117 37.1021C12.2117 36.7527 12.1785 36.4443 12.112 36.1769C12.0456 35.9046 11.9178 35.6477 11.7288 35.406C11.5398 35.1645 11.3048 34.9795 11.0238 34.851C10.748 34.7226 10.4517 34.6584 10.1349 34.6584C9.46562 34.6584 8.93696 34.8948 8.5489 35.3677C8.1658 35.8354 7.97424 36.4624 7.97424 37.2489C7.97424 38.0044 8.17861 38.598 8.58735 39.0298C8.97046 39.4308 9.46337 39.6312 10.0661 39.6312C10.7864 39.6312 11.3458 39.3177 11.7442 38.6906C12.0558 38.2025 12.2116 37.6731 12.2116 37.1024L12.2117 37.1021ZM10.0431 39.8849C9.19001 39.8849 8.5055 39.6383 7.98959 39.1449C7.47875 38.6463 7.22333 37.9833 7.22333 37.1557C7.22333 36.3283 7.49663 35.6575 8.04323 35.1434C8.56936 34.65 9.24117 34.4033 10.0587 34.4033C10.8556 34.4033 11.5197 34.6114 12.051 35.0276C12.6589 35.5056 12.9628 36.1764 12.9628 37.04C12.9628 37.8932 12.692 38.5819 12.1505 39.106C11.609 39.6263 10.9064 39.8864 10.043 39.8864L10.0431 39.8849Z" fill="#0100CC"/>
<path d="M18.9317 34.529H19.0926C19.1998 35.5518 19.2662 36.1789 19.2918 36.4103C19.3735 37.1657 19.4399 37.7542 19.491 38.1757C19.546 38.5919 19.6201 39.1342 19.7133 39.8024L19.3532 39.7792L18.9931 39.8024C18.9471 39.2885 18.9031 38.7976 18.861 38.3297C18.8253 37.862 18.7813 37.3994 18.729 36.9419C18.683 36.4845 18.639 36.1119 18.597 35.824C18.2854 36.3893 18.0146 36.8827 17.7847 37.3042C17.5191 37.7976 17.2968 38.2242 17.1179 38.584C16.9238 38.9798 16.7476 39.3575 16.5891 39.7172H16.5066L16.0851 38.846C15.9012 38.4606 15.7377 38.1285 15.5946 37.8498C15.4516 37.5671 15.2753 37.2253 15.0659 36.8245C14.8871 36.4904 14.7108 36.1564 14.5371 35.8223C14.4491 36.5573 14.3648 37.2999 14.2842 38.0502C14.2025 38.8007 14.1616 39.3841 14.1616 39.8003L13.8934 39.777L13.6175 39.8003C13.7248 39.1321 13.8653 38.1839 14.039 36.9555C14.2128 35.722 14.3176 34.9125 14.3532 34.527H14.5513C14.8169 35.0513 15.034 35.4804 15.2027 35.8145C15.407 36.2102 15.649 36.6651 15.9288 37.179C16.2354 37.7391 16.4984 38.2017 16.718 38.5668C17.4537 37.2202 18.1893 35.8736 18.9249 34.527L18.9317 34.529ZM20.8253 39.8052V34.5319L21.1625 34.5551L21.4996 34.5319V39.8052L21.1625 39.782L20.8253 39.8052ZM27.4373 34.529V39.8024H27.2074L26.809 39.3322L23.4987 35.6471H23.4221V39.8026L23.2076 39.7793L22.993 39.8026V34.5292H23.2901L26.93 38.4995H27.0066V34.5292L27.2211 34.5524L27.4373 34.529ZM28.8731 39.8052V34.5319H31.5934L31.5703 34.7631L31.5934 34.9944C31.4402 34.9634 31.315 34.9429 31.218 34.9327C31.1209 34.9172 31.0162 34.9094 30.9037 34.9094L30.1375 34.894H29.5475V36.8275H30.7352C30.8323 36.8275 30.96 36.8224 31.1184 36.8121C31.2819 36.7966 31.381 36.7888 31.4155 36.7888L31.3924 36.9892L31.4155 37.2051C31.3235 37.2051 31.1958 37.1999 31.0323 37.1896C30.8688 37.1741 30.7698 37.1664 30.7352 37.1664H29.5475V39.8031L29.2103 39.7798L28.8731 39.8052Z" fill="#0100CC"/>
<path d="M37.3312 37.1021C37.3312 36.7527 37.298 36.4443 37.2315 36.1769C37.1651 35.9046 37.0374 35.6477 36.8483 35.406C36.6593 35.1645 36.4243 34.9795 36.1433 34.851C35.8675 34.7226 35.5712 34.6584 35.2544 34.6584C34.5851 34.6584 34.0565 34.8948 33.6684 35.3677C33.2853 35.8354 33.0938 36.4624 33.0938 37.2489C33.0938 38.0044 33.2981 38.598 33.7069 39.0298C34.09 39.4308 34.5829 39.6312 35.1856 39.6312C35.9059 39.6312 36.4653 39.3177 36.8637 38.6906C37.1753 38.2025 37.3311 37.6731 37.3311 37.1024L37.3312 37.1021ZM35.1626 39.8849C34.3095 39.8849 33.625 39.6383 33.1091 39.1449C32.5983 38.6463 32.3428 37.9833 32.3428 37.1557C32.3428 36.3283 32.6161 35.6575 33.1627 35.1434C33.6889 34.65 34.3607 34.4033 35.1782 34.4033C35.9751 34.4033 36.6392 34.6114 37.1705 35.0276C37.7784 35.5056 38.0823 36.1764 38.0823 37.04C38.0823 37.8932 37.8115 38.5819 37.27 39.106C36.7285 39.6263 36.026 39.8864 35.1625 39.8864L35.1626 39.8849Z" fill="#0100CC"/>
</g>
</svg>
