<svg width="29" height="15" viewBox="0 0 29 15" fill="none" xmlns="http://www.w3.org/2000/svg">
<g clip-path="url(#clip0_353_4431)">
<path fill-rule="evenodd" clip-rule="evenodd" d="M3.57555 1.601H6.72127L6.38423 3.56783C8.30266 2.47161 10.6207 1.53303 13.1805 0.883685C20.8599 -1.06435 27.8112 0.316774 28.7057 3.97132C29.1565 5.81089 27.9876 7.87462 25.7349 9.71853L27.4116 13.2386H24.8063C24.4095 13.2386 24.3299 13.1402 24.1493 12.7787L23.4667 11.2877C21.4999 12.4461 19.0937 13.4382 16.4215 14.1164C8.74209 16.0659 1.79222 14.6833 0.896291 11.0288C0.525119 9.51606 1.25182 7.85148 2.77348 6.28091L3.57555 1.601Z" fill="#ED1C24"/>
<path fill-rule="evenodd" clip-rule="evenodd" d="M3.86997 2.07965H6.2321L5.09441 8.54851H8.18751L7.90309 10.5385H2.44928L3.86997 2.07965Z" fill="white"/>
<path fill-rule="evenodd" clip-rule="evenodd" d="M10.1472 5.22803H12.1026L11.164 10.5385H9.20856L10.1472 5.22803Z" fill="white"/>
<path fill-rule="evenodd" clip-rule="evenodd" d="M10.5084 3.40875H12.4638L12.2605 4.57294H10.3051L10.5084 3.40875Z" fill="white"/>
<path fill-rule="evenodd" clip-rule="evenodd" d="M13.3213 5.22805H15.2767L15.0862 6.30691C15.5484 5.32928 16.9648 4.97496 17.8351 5.20491C19.0539 5.52741 19.2018 6.21725 18.9401 7.59114L18.4125 10.5385H16.376L16.8638 8.05248C17.0729 7.10088 16.7756 6.7133 15.9707 6.88829C15.4403 7.03435 15.0008 7.78059 14.6738 8.65265L14.3396 10.5385H12.3842L13.3228 5.22805H13.3213Z" fill="white"/>
<path fill-rule="evenodd" clip-rule="evenodd" d="M20.9538 3.45502H22.9092L21.6521 10.5385H19.6967L20.9538 3.45502Z" fill="white"/>
<path fill-rule="evenodd" clip-rule="evenodd" d="M26.4844 4.63947L22.9433 7.16309C22.3972 7.6736 22.4029 8.02213 22.7912 8.7944L24.4522 12.42C24.6328 12.7816 24.7139 12.8799 25.1092 12.8799H26.8044L24.63 8.31426C24.4607 8.00478 24.4053 7.76471 24.63 7.45522L26.4844 4.64091V4.63947Z" fill="white"/>
</g>
<defs>
<clipPath id="clip0_353_4431">
<rect width="28" height="15" fill="white" transform="translate(0.801147)"/>
</clipPath>
</defs>
</svg>
