<svg width="20" height="13" viewBox="0 0 20 13" fill="none" xmlns="http://www.w3.org/2000/svg">
<path d="M12.5771 1.6355H7.22327V11.3642H12.5771V1.6355Z" fill="#FF5F00"/>
<path d="M7.56336 6.49998C7.56336 4.52331 8.48116 2.77008 9.89186 1.63565C8.85508 0.810599 7.54636 0.312134 6.11867 0.312134C2.73641 0.312134 0 3.07948 0 6.49998C0 9.92048 2.73641 12.6878 6.11867 12.6878C7.54636 12.6878 8.85508 12.1894 9.89186 11.3643C8.48116 10.2471 7.56336 8.47665 7.56336 6.49998Z" fill="#EB001B"/>
<path d="M19.8012 6.49998C19.8012 9.92048 17.0648 12.6878 13.6825 12.6878C12.2548 12.6878 10.9461 12.1894 9.9093 11.3643C11.337 10.2299 12.2378 8.47665 12.2378 6.49998C12.2378 4.52331 11.32 2.77008 9.9093 1.63565C10.9461 0.810599 12.2548 0.312134 13.6825 0.312134C17.0648 0.312134 19.8012 3.09666 19.8012 6.49998Z" fill="#F79E1B"/>
</svg>
