<svg width="64" height="27" viewBox="0 0 64 27" fill="none" xmlns="http://www.w3.org/2000/svg">
<g style="mix-blend-mode:luminosity" clip-path="url(#clip0_353_4475)">
<path d="M15.1901 8.02032V17.3505C15.1398 18.1238 14.9197 18.9789 14.0206 18.9789C13.612 18.9789 13.4296 18.8846 13.3416 18.7211C14.0835 17.6146 14.5236 16.2565 14.5236 14.779C14.5236 13.9051 14.3664 13.0689 14.0835 12.3019C14.0332 12.1699 13.9829 12.0441 13.9263 11.9184C12.9455 9.66128 10.8519 8.09577 8.41248 8.09577C5.04254 8.09577 2.30762 11.0822 2.30762 14.7728C2.30762 18.4633 5.04254 21.4498 8.41248 21.4498C9.45615 21.4498 10.4432 21.1605 11.3046 20.6576C12.015 21.1668 12.8701 21.4686 13.7943 21.4686C15.8502 21.4686 17.5729 19.9911 18.0507 18.0044V8.02032H15.1712H15.1901ZM9.8208 18.8091C9.39328 19.0543 8.92174 19.1989 8.42505 19.1989C6.52632 19.1989 4.99225 17.2059 4.99225 14.7476C4.99225 12.2893 6.53261 10.2963 8.42505 10.2963C9.82709 10.2963 11.0279 11.384 11.5624 12.9369C11.751 13.4902 11.8579 14.1 11.8579 14.7476C11.8579 16.5583 11.0217 18.1175 9.8208 18.8091Z" fill="url(#paint0_radial_353_4475)"/>
<path d="M18.8995 13.1257V17.1809L20.6599 15.5462L24.6649 21.5002H28.6321L22.9925 12.9999L27.8462 7.83185H23.4326L18.8995 13.1257Z" fill="url(#paint1_radial_353_4475)"/>
<path d="M27.9968 7.9574C27.2298 8.03285 26.3182 8.04542 25.2431 7.93225C25.1802 7.93225 25.1236 7.93225 25.067 7.91968C20.6786 6.6308 19.3142 4.78237 16.529 2.64473C13.5552 0.356192 6.4255 -1.19046 0 3.8833C0 3.8833 2.20052 5.15331 3.20646 7.30353C3.22533 7.34126 3.24419 7.37898 3.26305 7.4167C4.25642 9.63608 4.4136 11.5474 4.4136 11.5474C4.4136 11.5474 8.06017 7.37898 12.5681 7.21551C16.3718 7.07719 20.7854 8.55468 24.2874 8.94449C24.935 9.01365 25.5511 9.05137 26.1295 9.03251C29.8076 8.90048 31.2159 6.78798 31.2159 6.78798C31.2159 6.78798 30.3105 7.72477 28.0094 7.9574H27.9968Z" fill="#313132"/>
<path d="M13.8757 4.36757C19.2638 5.80105 20.6784 7.67463 25.0606 7.64319C25.136 7.64319 25.1989 7.63691 25.268 7.63691C25.2052 7.63691 25.1486 7.63691 25.092 7.62433C20.7224 6.40462 19.3707 4.65678 16.598 2.63231C13.643 0.469513 6.86544 -1.05827 0.477661 3.74514C0.477661 3.74514 2.35124 5.00886 3.3509 7.03962C3.53323 6.83215 3.70928 6.64353 3.8916 6.4612C7.38728 2.84607 10.7321 3.53137 13.8819 4.36757H13.8757Z" fill="url(#paint2_linear_353_4475)"/>
<path d="M28.0029 7.66193C27.2422 7.73737 26.3306 7.74366 25.2617 7.63678C25.1863 7.63678 25.1234 7.64307 25.0543 7.64307C20.6784 7.6745 18.283 5.25394 14.2089 3.93991C11.1093 2.94025 7.37469 2.83966 3.87902 6.45479C3.69669 6.63712 3.52065 6.82573 3.33832 7.03321C3.35718 7.07093 3.37604 7.10237 3.3949 7.14009C4.38199 9.24001 4.53917 11.0507 4.53917 11.0507C4.53917 11.0507 8.16688 7.10866 12.6496 6.94519C16.4345 6.81316 20.823 8.2152 24.3061 8.57986C24.9474 8.64902 25.5635 8.68674 26.1357 8.66159C29.7948 8.53585 31.2534 6.62454 31.2534 6.62454C31.2534 6.62454 30.2915 7.42302 28.0029 7.64935V7.66193Z" fill="url(#paint3_linear_353_4475)"/>
<path d="M31.9828 7.84427H31.3856V21.3303H31.9828V7.84427Z" fill="#660812"/>
<path d="M37.176 9.83089C37.176 10.0321 37.1383 10.227 37.0628 10.403C36.9874 10.5853 36.8742 10.7425 36.7296 10.8871C36.585 11.0317 36.4152 11.1386 36.2329 11.2141C36.0506 11.2895 35.8557 11.3272 35.6482 11.3272C35.4407 11.3272 35.2458 11.2895 35.0635 11.2141C34.8749 11.1386 34.7114 11.0317 34.5668 10.8871C34.4222 10.7425 34.309 10.5853 34.2336 10.403C34.1581 10.2207 34.1204 10.0321 34.1204 9.8246C34.1204 9.61712 34.1581 9.42851 34.2336 9.24618C34.309 9.06385 34.4159 8.90667 34.5668 8.76206C34.7114 8.61746 34.8749 8.51058 35.0635 8.43513C35.2458 8.35968 35.447 8.32196 35.6482 8.32196C35.8494 8.32196 36.0506 8.35968 36.2329 8.43513C36.4152 8.51058 36.5787 8.61746 36.7296 8.76206C36.8742 8.90667 36.9874 9.07014 37.0628 9.25246C37.1383 9.43479 37.176 9.62341 37.176 9.8246V9.83089ZM36.6919 9.83089C36.6919 9.68628 36.6667 9.54796 36.6164 9.41593C36.5661 9.2839 36.4907 9.17073 36.3901 9.07014C36.2958 8.96954 36.1826 8.89409 36.0569 8.83751C35.9311 8.78093 35.7991 8.75578 35.6545 8.75578C35.5099 8.75578 35.3779 8.78093 35.2521 8.83751C35.1264 8.89409 35.0132 8.96954 34.9126 9.07014C34.812 9.17073 34.7366 9.2839 34.6863 9.41593C34.636 9.54796 34.6108 9.68628 34.6108 9.83089C34.6108 9.97549 34.636 10.1138 34.6863 10.2396C34.7366 10.3716 34.812 10.4848 34.9126 10.5853C35.0132 10.6859 35.1264 10.7614 35.2521 10.818C35.3779 10.8683 35.5099 10.8997 35.6545 10.8997C35.7991 10.8997 35.9248 10.8746 36.0506 10.818C36.1763 10.7614 36.2895 10.6859 36.3901 10.5853C36.4907 10.4848 36.5661 10.3653 36.6164 10.2396C36.6667 10.1075 36.6919 9.97549 36.6919 9.83089Z" fill="#313132"/>
<path d="M38.49 8.78711V11.2454H38.0248V8.78711H37.264V8.39102H39.2445V8.78711H38.49Z" fill="#313132"/>
<path d="M42.3882 9.83089C42.3882 10.0321 42.3504 10.227 42.275 10.403C42.1995 10.5853 42.0864 10.7425 41.9418 10.8871C41.7972 11.0317 41.6274 11.1386 41.4451 11.2141C41.2627 11.2895 41.0678 11.3272 40.8604 11.3272C40.6529 11.3272 40.458 11.2895 40.2757 11.2141C40.087 11.1386 39.9236 11.0317 39.779 10.8871C39.6344 10.7425 39.5212 10.5853 39.4458 10.403C39.3703 10.2207 39.3326 10.0321 39.3326 9.8246C39.3326 9.61712 39.3703 9.42851 39.4458 9.24618C39.5212 9.06385 39.6344 8.90667 39.779 8.76206C39.9236 8.61746 40.087 8.51058 40.2757 8.43513C40.458 8.35968 40.6592 8.32196 40.8604 8.32196C41.0616 8.32196 41.2627 8.35968 41.4451 8.43513C41.6274 8.51058 41.7909 8.61746 41.9418 8.76206C42.0864 8.90667 42.1995 9.07014 42.275 9.25246C42.3504 9.43479 42.3882 9.62341 42.3882 9.8246V9.83089ZM41.904 9.83089C41.904 9.68628 41.8789 9.54796 41.8286 9.41593C41.7783 9.2839 41.7028 9.17073 41.6023 9.07014C41.5079 8.96954 41.3948 8.89409 41.269 8.83751C41.1433 8.78093 41.0113 8.75578 40.8667 8.75578C40.722 8.75578 40.59 8.78093 40.4643 8.83751C40.3385 8.89409 40.2254 8.96954 40.1248 9.07014C40.0242 9.17073 39.9487 9.2839 39.8984 9.41593C39.8481 9.54796 39.823 9.68628 39.823 9.83089C39.823 9.97549 39.8481 10.1138 39.8984 10.2396C39.9487 10.3716 40.0242 10.4848 40.1248 10.5853C40.2254 10.6859 40.3385 10.7614 40.4643 10.818C40.59 10.8683 40.722 10.8997 40.8667 10.8997C41.0113 10.8997 41.137 10.8746 41.2627 10.818C41.3885 10.7614 41.5017 10.6859 41.6023 10.5853C41.7028 10.4848 41.7783 10.3653 41.8286 10.2396C41.8789 10.1075 41.904 9.97549 41.904 9.83089Z" fill="#313132"/>
<path d="M43.3563 9.96911V11.2454H42.9225V8.39102H43.5701C43.7587 8.39102 43.9096 8.4036 44.0102 8.42874C44.1171 8.45389 44.2051 8.49162 44.2805 8.5482C44.3685 8.61736 44.4377 8.70538 44.488 8.81855C44.5383 8.92543 44.5634 9.04489 44.5634 9.17692C44.5634 9.40326 44.5069 9.58559 44.4 9.71133C44.2868 9.84336 44.1233 9.91881 43.9096 9.94396L44.8904 11.2454H44.3623L43.4129 9.96911H43.3626H43.3563ZM43.3877 9.61074H43.4695C43.7147 9.61074 43.8781 9.5793 43.9599 9.52272C44.0416 9.46613 44.0793 9.36554 44.0793 9.22093C44.0793 9.06375 44.0353 8.95058 43.9536 8.88771C43.8656 8.82484 43.7084 8.7934 43.4695 8.7934H43.3877V9.61074Z" fill="#313132"/>
<path d="M45.1608 11.2518V8.39746H45.626V11.2518H45.1608Z" fill="#313132"/>
<path d="M47.2166 8.78711V11.2454H46.7513V8.78711H45.9906V8.39102H47.9648V8.78711H47.2103H47.2166Z" fill="#313132"/>
<path d="M49.9201 11.2517L49.5932 10.5161H48.4615L48.1283 11.2517H47.6379L49.0211 8.28418L50.4042 11.2517H49.9138H49.9201ZM48.6375 10.1326H49.436L49.1468 9.47874C49.1279 9.43473 49.1154 9.39072 49.0965 9.33414C49.0776 9.27756 49.0588 9.22097 49.0399 9.15181C49.0273 9.21468 49.0085 9.27127 48.9896 9.32785C48.9708 9.38444 48.9519 9.42845 48.933 9.47874L48.6438 10.1326H48.6375Z" fill="#313132"/>
<path d="M50.5173 10.6795L50.8883 10.5097C50.926 10.6355 50.9889 10.7361 51.0832 10.799C51.1775 10.8681 51.2969 10.8996 51.4416 10.8996C51.5862 10.8996 51.6868 10.8618 51.7685 10.7864C51.8502 10.7109 51.8879 10.6041 51.8879 10.4783C51.8879 10.3086 51.7496 10.164 51.473 10.0319C51.4353 10.0131 51.4038 10.0005 51.385 9.98791C51.0706 9.83702 50.8631 9.6987 50.7563 9.57296C50.6494 9.44721 50.5991 9.29632 50.5991 9.12028C50.5991 8.88765 50.6745 8.69904 50.8317 8.55443C50.9889 8.40983 51.1964 8.34067 51.4541 8.34067C51.6679 8.34067 51.8439 8.37839 51.9823 8.46012C52.1269 8.54186 52.2212 8.65503 52.2777 8.81221L51.9131 9.00082C51.8565 8.9128 51.7936 8.84364 51.7245 8.80592C51.6553 8.76191 51.5799 8.74305 51.4919 8.74305C51.3661 8.74305 51.2655 8.77448 51.1964 8.84364C51.1209 8.90651 51.0895 8.99454 51.0895 9.10142C51.0895 9.27117 51.2529 9.43464 51.5736 9.57924C51.5987 9.59182 51.6176 9.5981 51.6302 9.60439C51.9131 9.73642 52.108 9.86217 52.2086 9.98791C52.3155 10.1137 52.3658 10.2645 52.3658 10.4532C52.3658 10.7235 52.2777 10.9373 52.108 11.0945C51.9382 11.2516 51.7056 11.3334 51.4164 11.3334C51.1712 11.3334 50.9763 11.2768 50.8191 11.1636C50.6619 11.0504 50.5613 10.8933 50.511 10.6858L50.5173 10.6795Z" fill="#313132"/>
<path d="M34.2273 15.5206C34.2776 15.5772 34.3216 15.6212 34.3656 15.6464C34.4097 15.6715 34.4537 15.6841 34.504 15.6841C34.592 15.6841 34.6611 15.6527 34.6926 15.5961C34.7303 15.5332 34.7492 15.4263 34.7492 15.2629V13.1881H35.2081V15.4137C35.2081 15.6527 35.1578 15.835 35.0509 15.9482C34.9441 16.0613 34.7806 16.1179 34.5543 16.1179C34.4285 16.1179 34.3153 16.0928 34.2147 16.0425C34.1142 15.9922 34.0198 15.9167 33.9255 15.8161L34.221 15.5206H34.2273Z" fill="#313132"/>
<path d="M37.7105 16.0427L37.3835 15.3071H36.2518L35.9186 16.0427H35.4282L36.8114 13.0751L38.1946 16.0427H37.7042H37.7105ZM36.4279 14.9235H37.2264L36.9371 14.2697C36.9183 14.2257 36.8994 14.1816 36.8868 14.1251C36.868 14.0685 36.8491 14.0119 36.8303 13.9427C36.8177 14.0056 36.7988 14.0622 36.78 14.1188C36.7611 14.1754 36.7422 14.2257 36.7234 14.2697L36.4342 14.9235H36.4279Z" fill="#313132"/>
<path d="M38.3078 15.4706L38.6787 15.3008C38.7165 15.4266 38.7793 15.5272 38.8736 15.59C38.968 15.6592 39.0874 15.6906 39.232 15.6906C39.3703 15.6906 39.4772 15.6529 39.5589 15.5775C39.6407 15.502 39.6847 15.3951 39.6847 15.2694C39.6847 15.0996 39.5464 14.955 39.2697 14.823C39.232 14.8041 39.2006 14.7916 39.1817 14.779C38.8674 14.6281 38.6599 14.4898 38.553 14.364C38.4461 14.2383 38.3958 14.0874 38.3958 13.9051C38.3958 13.6724 38.4713 13.4838 38.6347 13.3392C38.7919 13.1946 38.9994 13.1255 39.2572 13.1255C39.4646 13.1255 39.6407 13.1632 39.7853 13.2449C39.9236 13.3266 40.0242 13.4398 40.0808 13.597L39.7161 13.7856C39.6595 13.6976 39.5967 13.6284 39.5275 13.5907C39.4584 13.5467 39.3829 13.5278 39.2949 13.5278C39.1691 13.5278 39.0685 13.5593 38.9994 13.6284C38.9239 13.6913 38.8925 13.7793 38.8925 13.8925C38.8925 14.0622 39.056 14.2257 39.3766 14.3703C39.4018 14.3829 39.4206 14.3892 39.4332 14.3955C39.7161 14.5275 39.911 14.6532 40.0179 14.779C40.1248 14.9047 40.1751 15.0556 40.1751 15.2442C40.1751 15.5146 40.0934 15.7284 39.9173 15.8855C39.7476 16.0427 39.5149 16.1244 39.2257 16.1244C38.9805 16.1244 38.7856 16.0679 38.6284 15.9547C38.4713 15.8415 38.3707 15.6843 38.3267 15.4769L38.3078 15.4706Z" fill="#313132"/>
<path d="M42.5451 16.0427L42.2245 15.3071H41.0928L40.7596 16.0427H40.2692L41.6523 13.0751L43.0355 16.0427H42.5451ZM41.2625 14.9235H42.061L41.7655 14.2697C41.7467 14.2257 41.7341 14.1816 41.7152 14.1251C41.6964 14.0685 41.6775 14.0119 41.6586 13.9427C41.6398 14.0056 41.6272 14.0622 41.6083 14.1188C41.5895 14.1754 41.5769 14.2257 41.558 14.2697L41.2625 14.9235Z" fill="#313132"/>
<path d="M34.2524 20.8334V17.979H34.7177V19.161L35.7425 17.979H36.3084L35.1767 19.249L36.4404 20.8334H35.8431L34.7177 19.3747V20.8334H34.2524Z" fill="#313132"/>
<path d="M36.7296 20.8334V17.979H38.3265V18.3751H37.2011V19.0918H38.3265V19.5005H37.2011V20.4247H38.3265V20.8396H36.7296V20.8334Z" fill="#313132"/>
<path d="M38.842 17.979H39.3009V19.7142C39.3009 19.972 39.3638 20.1669 39.477 20.2927C39.5964 20.4247 39.7725 20.4876 40.0114 20.4876C40.2503 20.4876 40.4264 20.4247 40.5458 20.2927C40.6653 20.1606 40.7218 19.972 40.7218 19.7142V17.979H41.1871V19.7582C41.1871 20.1418 41.0865 20.431 40.8979 20.6259C40.703 20.8208 40.4075 20.9151 40.0177 20.9151C39.6279 20.9151 39.3324 20.8208 39.1375 20.6259C38.9426 20.4373 38.8483 20.1481 38.8483 19.7582V17.979H38.842Z" fill="#313132"/>
<path d="M43.6392 20.8335L43.3186 20.0979H42.1869L41.8537 20.8335H41.3633L42.7465 17.866L44.1296 20.8335H43.6392ZM42.3567 19.7144H43.1551L42.8596 19.0606C42.8408 19.0166 42.8282 18.9725 42.8093 18.916C42.7905 18.8594 42.7716 18.8028 42.7527 18.7336C42.7339 18.7965 42.7213 18.8531 42.7025 18.9097C42.6836 18.9663 42.671 19.0166 42.6522 19.0606L42.3567 19.7144Z" fill="#313132"/>
<path d="M44.4001 20.8335V17.866L46.2108 19.6138C46.2611 19.6641 46.3114 19.7144 46.3617 19.771C46.412 19.8276 46.4686 19.8905 46.5252 19.9596V17.9792H46.9527V20.9467L45.1042 19.1674C45.0539 19.1171 45.0099 19.0668 44.9596 19.0166C44.9156 18.96 44.8716 18.9097 44.8276 18.8468V20.8335H44.4001Z" fill="#313132"/>
<path d="M49.1906 19.3747H50.3223C50.3223 19.3747 50.3223 19.425 50.3223 19.4564C50.3223 19.5507 50.3223 19.6136 50.3223 19.645C50.3223 20.0474 50.2092 20.3555 49.9765 20.5818C49.7439 20.8019 49.4233 20.915 49.002 20.915C48.7694 20.915 48.5556 20.8836 48.3733 20.8144C48.191 20.7453 48.0275 20.6447 47.8892 20.5001C47.7572 20.3618 47.6503 20.1983 47.5811 20.016C47.5057 19.8274 47.4742 19.6324 47.4742 19.4187C47.4742 19.2049 47.512 19.0037 47.5811 18.8214C47.6566 18.6391 47.7635 18.4756 47.9081 18.3373C48.0464 18.199 48.2098 18.0984 48.3985 18.0229C48.5871 17.9538 48.7883 17.916 49.002 17.916C49.2284 17.916 49.4296 17.9601 49.6056 18.0418C49.7816 18.1235 49.9388 18.2493 50.0771 18.419L49.7376 18.6768C49.6433 18.5636 49.5301 18.4819 49.4107 18.4253C49.2912 18.3687 49.1529 18.3436 49.002 18.3436C48.694 18.3436 48.4425 18.4442 48.2413 18.6391C48.0464 18.8403 47.9521 19.098 47.9521 19.4124C47.9521 19.7268 48.0464 19.9971 48.2413 20.1983C48.4362 20.3995 48.694 20.5001 49.002 20.5001C49.2661 20.5001 49.4736 20.4372 49.6307 20.3178C49.7816 20.192 49.8571 20.0285 49.8571 19.8148V19.7708H49.1718V19.381L49.1906 19.3747Z" fill="#313132"/>
<path d="M52.7055 20.8335L52.3785 20.0979H51.2468L50.9136 20.8335H50.4232L51.8064 17.866L53.1896 20.8335H52.6992H52.7055ZM51.4229 19.7144H52.2214L51.9321 19.0606C51.9133 19.0166 51.8944 18.9725 51.8818 18.916C51.863 18.8594 51.8441 18.8028 51.8253 18.7336C51.8127 18.7965 51.7938 18.8531 51.775 18.9097C51.7561 18.9663 51.7372 19.0166 51.7184 19.0606L51.4292 19.7144H51.4229Z" fill="#313132"/>
<path d="M53.4597 20.8335V17.866L55.2767 19.6138C55.327 19.6641 55.3773 19.7144 55.4276 19.771C55.4779 19.8276 55.5282 19.8905 55.5848 19.9596V17.9792H56.0123V20.9467L54.1639 19.1674C54.1136 19.1171 54.0696 19.0668 54.0193 19.0166C53.9753 18.96 53.9313 18.9097 53.8872 18.8468V20.8335H53.4597Z" fill="#313132"/>
</g>
<defs>
<radialGradient id="paint0_radial_353_4475" cx="0" cy="0" r="1" gradientUnits="userSpaceOnUse" gradientTransform="translate(16.3783 14.0372) scale(10.8894)">
<stop stop-color="#C40015"/>
<stop offset="0.14" stop-color="#AC0114"/>
<stop offset="0.37" stop-color="#8E0413"/>
<stop offset="0.59" stop-color="#770612"/>
<stop offset="0.81" stop-color="#6A0712"/>
<stop offset="1" stop-color="#660812"/>
</radialGradient>
<radialGradient id="paint1_radial_353_4475" cx="0" cy="0" r="1" gradientUnits="userSpaceOnUse" gradientTransform="translate(16.3784 14.0373) scale(10.8894)">
<stop stop-color="#C40015"/>
<stop offset="0.14" stop-color="#AC0114"/>
<stop offset="0.37" stop-color="#8E0413"/>
<stop offset="0.59" stop-color="#770612"/>
<stop offset="0.81" stop-color="#6A0712"/>
<stop offset="1" stop-color="#660812"/>
</radialGradient>
<linearGradient id="paint2_linear_353_4475" x1="22.7972" y1="6.73784" x2="-1.28275" y2="2.2425" gradientUnits="userSpaceOnUse">
<stop stop-color="#E77D62"/>
<stop offset="0.02" stop-color="#D76854"/>
<stop offset="0.04" stop-color="#C24B41"/>
<stop offset="0.07" stop-color="#B13532"/>
<stop offset="0.1" stop-color="#A62628"/>
<stop offset="0.14" stop-color="#9F1C21"/>
<stop offset="0.19" stop-color="#9D1A20"/>
<stop offset="0.22" stop-color="#A01E23"/>
<stop offset="0.26" stop-color="#AA2B2B"/>
<stop offset="0.3" stop-color="#BA423A"/>
<stop offset="0.34" stop-color="#D1604F"/>
<stop offset="0.38" stop-color="#E77D62"/>
<stop offset="0.43" stop-color="#D76753"/>
<stop offset="0.52" stop-color="#C24B41"/>
<stop offset="0.61" stop-color="#B13532"/>
<stop offset="0.71" stop-color="#A52628"/>
<stop offset="0.83" stop-color="#9F1C21"/>
<stop offset="1" stop-color="#9D1A20"/>
</linearGradient>
<linearGradient id="paint3_linear_353_4475" x1="-7.62025" y1="7.78139" x2="25.7081" y2="6.50509" gradientUnits="userSpaceOnUse">
<stop stop-color="#7F8083"/>
<stop offset="0.15" stop-color="#818285"/>
<stop offset="0.26" stop-color="#8B8B8E"/>
<stop offset="0.35" stop-color="#9A9B9D"/>
<stop offset="0.44" stop-color="#B0B1B3"/>
<stop offset="0.52" stop-color="#CCCDCE"/>
<stop offset="0.59" stop-color="#EFEFEF"/>
<stop offset="0.62" stop-color="white"/>
<stop offset="0.64" stop-color="#F1F2F2"/>
<stop offset="0.69" stop-color="#D3D4D5"/>
<stop offset="0.73" stop-color="#BCBEC0"/>
<stop offset="0.77" stop-color="#AFB1B4"/>
<stop offset="0.81" stop-color="#ABADB0"/>
<stop offset="0.87" stop-color="#ADAFB2"/>
<stop offset="0.9" stop-color="#B7B8BB"/>
<stop offset="0.94" stop-color="#C6C8CA"/>
<stop offset="0.97" stop-color="#DCDDDE"/>
<stop offset="1" stop-color="white"/>
</linearGradient>
<clipPath id="clip0_353_4475">
<rect width="64" height="26" fill="white" transform="translate(0 0.5)"/>
</clipPath>
</defs>
</svg>
