<svg width="25" height="24" viewBox="0 0 25 24" fill="none" xmlns="http://www.w3.org/2000/svg">
<path d="M12.6596 11.62C12.6296 11.62 12.6096 11.62 12.5796 11.62C12.5296 11.61 12.4596 11.61 12.3996 11.62C9.49961 11.53 7.30961 9.25 7.30961 6.44C7.30961 3.58 9.63961 1.25 12.4996 1.25C15.3596 1.25 17.6896 3.58 17.6896 6.44C17.6796 9.25 15.4796 11.53 12.6896 11.62C12.6796 11.62 12.6696 11.62 12.6596 11.62Z" fill="#3676E0"/>
<path d="M12.6696 22.55C10.7096 22.55 8.73961 22.05 7.24961 21.05C5.85961 20.13 5.09961 18.87 5.09961 17.5C5.09961 16.13 5.85961 14.86 7.24961 13.93C10.2496 11.94 15.1096 11.94 18.0896 13.93C19.4696 14.85 20.2396 16.11 20.2396 17.48C20.2396 18.85 19.4796 20.12 18.0896 21.05C16.5896 22.05 14.6296 22.55 12.6696 22.55Z" fill="#3676E0"/>
</svg>
