<svg width="6" height="6" viewBox="0 0 6 6" fill="none" xmlns="http://www.w3.org/2000/svg">
<path d="M3 6C4.65685 6 6 4.65685 6 3C6 1.34315 4.65685 0 3 0C1.34315 0 0 1.34315 0 3C0 4.65685 1.34315 6 3 6ZM4.26213 2.46213L2.91214 3.81214C2.79499 3.9293 2.60504 3.9293 2.48788 3.81214L1.88787 3.21214C1.77071 3.09498 1.77071 2.90503 1.88787 2.78788C2.00502 2.67072 2.19497 2.67072 2.31213 2.78787L2.70001 3.17574L3.83787 2.03787C3.95502 1.92071 4.14497 1.92071 4.26213 2.03787C4.37929 2.15502 4.37929 2.34497 4.26213 2.46213Z" fill="#13A10E"/>
</svg>
