<svg width="7" height="8" viewBox="0 0 7 8" fill="none" xmlns="http://www.w3.org/2000/svg">
<path d="M2.40483 0.529999C3.16483 0.529999 3.8215 0.673332 4.37483 0.959999C4.93483 1.24 5.3615 1.64333 5.65483 2.17C5.95483 2.69667 6.10483 3.31667 6.10483 4.03C6.10483 4.74333 5.95483 5.36333 5.65483 5.89C5.3615 6.41 4.93483 6.81 4.37483 7.09C3.8215 7.36333 3.16483 7.5 2.40483 7.5H0.234833V0.529999H2.40483ZM2.40483 6.75C3.30483 6.75 3.9915 6.51333 4.46483 6.04C4.93817 5.56 5.17483 4.89 5.17483 4.03C5.17483 3.16333 4.93483 2.48667 4.45483 2C3.9815 1.51333 3.29817 1.27 2.40483 1.27H1.14483V6.75H2.40483Z" fill="#616161"/>
</svg>
