<svg width="6" height="8" viewBox="0 0 6 8" fill="none" xmlns="http://www.w3.org/2000/svg">
<path d="M4.20082 7.49999L2.60082 4.71999H1.73082V7.49999H0.59082V0.549988H2.99082C3.52415 0.549988 3.97415 0.643321 4.34082 0.829988C4.71415 1.01665 4.99082 1.26665 5.17082 1.57999C5.35749 1.89332 5.45082 2.24332 5.45082 2.62999C5.45082 3.08332 5.31749 3.49665 5.05082 3.86999C4.79082 4.23665 4.38749 4.48665 3.84082 4.61999L5.56082 7.49999H4.20082ZM1.73082 3.80999H2.99082C3.41749 3.80999 3.73749 3.70332 3.95082 3.48999C4.17082 3.27665 4.28082 2.98999 4.28082 2.62999C4.28082 2.26999 4.17415 1.98999 3.96082 1.78999C3.74749 1.58332 3.42415 1.47999 2.99082 1.47999H1.73082V3.80999Z" fill="#616161"/>
</svg>
