<svg width="30" height="11" viewBox="0 0 30 11" fill="none" xmlns="http://www.w3.org/2000/svg">
<g clip-path="url(#clip0_353_4404)">
<path d="M12.9997 10.3557H10.5695L12.0895 0.675476H14.5196L12.9997 10.3557Z" fill="#00579F"/>
<path d="M21.8094 0.912127C21.3301 0.716261 20.5698 0.5 19.6297 0.5C17.2298 0.5 15.5398 1.8181 15.5295 3.70257C15.5095 5.09294 16.7394 5.86518 17.6593 6.32877C18.5995 6.80249 18.9191 7.11169 18.9191 7.53395C18.9096 8.18246 18.1594 8.48139 17.4597 8.48139C16.4895 8.48139 15.9696 8.32727 15.1795 7.96647L14.8595 7.8118L14.5195 9.98481C15.0894 10.2523 16.1396 10.4896 17.2298 10.5C19.7798 10.5 21.4399 9.2023 21.4595 7.19409C21.4692 6.09212 20.8198 5.24774 19.4196 4.55776C18.5696 4.11484 18.0491 3.81618 18.0491 3.36299C18.0591 2.951 18.4894 2.52902 19.4489 2.52902C20.2389 2.50835 20.8194 2.70394 21.2591 2.89967L21.4789 3.00246L21.8094 0.912127Z" fill="#00579F"/>
<path d="M25.0399 6.92637C25.24 6.37025 26.0101 4.21791 26.0101 4.21791C26 4.23858 26.2099 3.65152 26.3299 3.29114L26.4997 4.12524C26.4997 4.12524 26.9599 6.44238 27.0599 6.92637C26.6801 6.92637 25.5199 6.92637 25.0399 6.92637ZM28.0397 0.675476H26.1599C25.5802 0.675476 25.1398 0.850401 24.8897 1.47865L21.28 10.3556H23.8299C23.8299 10.3556 24.2497 9.16083 24.34 8.90351C24.6197 8.90351 27.1003 8.90351 27.4601 8.90351C27.5299 9.24337 27.7501 10.3556 27.7501 10.3556H30.0003L28.0397 0.675476Z" fill="#00579F"/>
<path d="M8.53965 0.675476L6.15967 7.27649L5.8996 5.93773C5.45959 4.39297 4.07963 2.71462 2.53967 1.8801L4.71965 10.3455H7.28953L11.1094 0.675476H8.53965Z" fill="#00579F"/>
<path d="M3.94997 0.675476H0.0400005L0 0.871069C3.05002 1.67438 5.06999 3.61073 5.89991 5.93814L5.04992 1.48919C4.90999 0.870932 4.47995 0.69587 3.94997 0.675476Z" fill="#F4A622"/>
</g>
<defs>
<clipPath id="clip0_353_4404">
<rect width="30" height="10" fill="white" transform="translate(0 0.5)"/>
</clipPath>
</defs>
</svg>
