<svg width="15" height="14" viewBox="0 0 15 14" fill="none" xmlns="http://www.w3.org/2000/svg">
<path d="M5.75002 1.16667C4.22169 1.16667 2.97919 2.40917 2.97919 3.93751C2.97919 5.43667 4.15169 6.65001 5.68002 6.70251C5.72669 6.69667 5.77335 6.69667 5.80835 6.70251C5.82002 6.70251 5.82585 6.70251 5.83752 6.70251C5.84335 6.70251 5.84335 6.70251 5.84919 6.70251C7.34252 6.65001 8.51502 5.43667 8.52085 3.93751C8.52085 2.40917 7.27835 1.16667 5.75002 1.16667Z" fill="#90A3BF"/>
<path d="M8.71331 8.25416C7.08581 7.16916 4.43164 7.16916 2.79248 8.25416C2.05164 8.75 1.64331 9.42083 1.64331 10.1383C1.64331 10.8558 2.05164 11.5208 2.78664 12.0108C3.60331 12.5592 4.67664 12.8333 5.74998 12.8333C6.82331 12.8333 7.89664 12.5592 8.71331 12.0108C9.44831 11.515 9.85664 10.85 9.85664 10.1267C9.85081 9.40916 9.44831 8.74416 8.71331 8.25416Z" fill="#90A3BF"/>
<path d="M12.1608 4.28167C12.2542 5.41334 11.4492 6.405 10.335 6.53917C10.3292 6.53917 10.3292 6.53917 10.3233 6.53917H10.3058C10.2708 6.53917 10.2358 6.53917 10.2067 6.55084C9.64083 6.58 9.12167 6.39917 8.73083 6.06667C9.33167 5.53 9.67584 4.725 9.60584 3.85C9.565 3.3775 9.40167 2.94584 9.15667 2.57834C9.37834 2.4675 9.635 2.3975 9.8975 2.37417C11.0408 2.275 12.0617 3.12667 12.1608 4.28167Z" fill="#90A3BF"/>
<path d="M13.3275 9.67751C13.2808 10.2433 12.9192 10.7333 12.3125 11.0658C11.7292 11.3867 10.9942 11.5383 10.265 11.5208C10.685 11.1417 10.93 10.6692 10.9767 10.1675C11.035 9.44417 10.6908 8.75001 10.0025 8.19584C9.61166 7.88667 9.15666 7.64167 8.66083 7.46084C9.94999 7.08751 11.5717 7.33834 12.5692 8.14334C13.1058 8.57501 13.38 9.11751 13.3275 9.67751Z" fill="#90A3BF"/>
</svg>
