<svg width="15" height="14" viewBox="0 0 15 14" fill="none" xmlns="http://www.w3.org/2000/svg">
<path d="M13.5317 5.4425L12.365 4.85916C12.1492 4.75416 11.8809 4.83583 11.7759 5.05166C11.665 5.27333 11.7525 5.53583 11.9684 5.64083L12.8959 6.10166V8.89583L10.7084 8.90166V2.91666C10.7084 1.75 9.92669 1.16666 8.95835 1.16666H4.29169C3.32335 1.16666 2.54169 1.75 2.54169 2.91666V12.3958H1.66669C1.42752 12.3958 1.22919 12.5942 1.22919 12.8333C1.22919 13.0725 1.42752 13.2708 1.66669 13.2708H11.5834C11.8225 13.2708 12.0209 13.0725 12.0209 12.8333C12.0209 12.5942 11.8225 12.3958 11.5834 12.3958H10.7084V9.77666L13.3334 9.77083C13.5784 9.77083 13.7709 9.5725 13.7709 9.33333V5.83333C13.7709 5.67 13.6775 5.51833 13.5317 5.4425ZM4.00002 4.01916C4.00002 3.20833 4.49585 2.91666 5.10252 2.91666H8.15335C8.75419 2.91666 9.25002 3.20833 9.25002 4.01916V4.73666C9.25002 5.54166 8.75419 5.83333 8.14752 5.83333H5.10252C4.49585 5.83333 4.00002 5.54166 4.00002 4.73083V4.01916ZM4.29169 7.14583H6.04169C6.28085 7.14583 6.47919 7.34416 6.47919 7.58333C6.47919 7.8225 6.28085 8.02083 6.04169 8.02083H4.29169C4.05252 8.02083 3.85419 7.8225 3.85419 7.58333C3.85419 7.34416 4.05252 7.14583 4.29169 7.14583Z" fill="#90A3BF"/>
</svg>
