<svg width="16" height="12" viewBox="0 0 16 12" fill="none" xmlns="http://www.w3.org/2000/svg">
<path fill-rule="evenodd" clip-rule="evenodd" d="M7.66707 2.78448C9.8918 2.78457 12.0315 3.63869 13.6438 5.17028C13.7652 5.28852 13.9593 5.28703 14.0789 5.16693L15.2395 3.9966C15.3 3.93569 15.3338 3.85318 15.3333 3.76733C15.3328 3.68148 15.2981 3.59937 15.2368 3.53917C11.0049 -0.513058 4.32857 -0.513058 0.0966565 3.53917C0.0353544 3.59933 0.000572274 3.68141 6.99859e-06 3.76726C-0.000558277 3.85311 0.0331399 3.93565 0.0936446 3.9966L1.25459 5.16693C1.37409 5.28721 1.56831 5.28871 1.68965 5.17028C3.30221 3.63858 5.44212 2.78447 7.66707 2.78448ZM9.89492 9.38514C9.95692 9.32434 9.99106 9.24068 9.98929 9.1539C9.98752 9.06712 9.94998 8.98492 9.88555 8.9267C8.60489 7.84443 6.72925 7.84443 5.44859 8.9267C5.38411 8.98487 5.34652 9.06705 5.34468 9.15383C5.34284 9.2406 5.37693 9.32429 5.43888 9.38514L7.44452 11.4071C7.5033 11.4666 7.58345 11.5 7.66707 11.5C7.75069 11.5 7.83084 11.4666 7.88962 11.4071L9.89492 9.38514ZM10.9742 7.86571C10.0681 7.04594 8.88942 6.59199 7.66707 6.59206C6.44553 6.59257 5.26774 7.04648 4.36227 7.86571C4.23972 7.98206 4.04667 7.97954 3.92721 7.86003L2.76827 6.6897C2.70709 6.6284 2.6731 6.54513 2.67392 6.45857C2.67474 6.37201 2.7103 6.28939 2.77262 6.22926C5.53178 3.66485 9.8047 3.66485 12.5639 6.22926C12.6261 6.28939 12.6617 6.37196 12.6626 6.4585C12.6635 6.54504 12.6296 6.62831 12.5685 6.6897L11.4093 7.86003C11.2898 7.97954 11.0968 7.98206 10.9742 7.86571Z" fill="black"/>
</svg>
